# Blender v2.79 (sub 0) OBJ File: 'Desert.blend'
# www.blender.org
mtllib DesertRock15.mtl
o ZBrush_defualt_group.003
v -0.227928 0.086423 0.558778
v -0.254861 0.184621 0.527844
v -0.346473 0.085694 0.476712
v -0.314916 -0.014959 0.509160
v -0.224019 -0.069133 0.518810
v -0.091555 0.107922 0.575521
v -0.085891 0.250365 0.522144
v 0.038540 0.227074 0.560168
v 0.040086 0.264232 0.516103
v 0.141827 0.252663 0.568934
v 0.113349 0.326126 0.490209
v 0.064220 0.062730 0.603510
v 0.015720 0.367863 0.459505
v 0.299714 0.299892 0.470875
v 0.257577 0.357730 0.442428
v -0.151743 0.306946 0.490619
v -0.084556 0.405374 0.445354
v -0.177347 0.376543 0.404864
v -0.294912 0.253153 0.460336
v 0.142310 -0.159447 0.523853
v -0.102609 -0.151840 0.531388
v -0.055650 -0.262569 0.392586
v 0.228021 -0.244511 0.431075
v -0.448343 0.028115 0.360309
v -0.402449 -0.005924 0.428336
v 0.211772 -0.270257 0.372823
v 0.284116 -0.315808 0.295906
v 0.333097 -0.264332 0.319305
v 0.441061 -0.048189 0.416087
v 0.309678 0.021771 0.562055
v -0.051407 0.517895 0.331671
v -0.167081 0.426627 0.331585
v -0.311420 0.288225 0.324448
v 0.120513 -0.347334 0.329885
v 0.305902 -0.341385 0.257088
v -0.393808 0.146476 0.293431
v -0.200052 -0.202698 0.379274
v -0.299241 -0.139435 0.341937
v -0.291389 -0.215986 0.193706
v -0.147439 -0.264773 0.257976
v 0.423930 0.183194 0.354454
v 0.477815 -0.053098 0.133700
v 0.453151 0.107200 0.107201
v -0.351848 0.269635 0.184985
v -0.467269 0.105949 0.186160
v 0.503411 -0.176418 0.312112
v 0.448564 -0.292267 0.190301
v 0.485994 -0.153276 0.208502
v 0.152937 0.389135 0.207272
v 0.102359 0.444462 0.411636
v 0.332797 0.190405 -0.021725
v 0.156029 0.352006 0.038099
v 0.307567 -0.306059 0.213542
v 0.340324 -0.283506 0.199919
v 0.167599 -0.368370 0.136317
v 0.178109 -0.337728 0.081333
v 0.461389 -0.203486 0.114407
v 0.416629 -0.213760 -0.009063
v -0.447642 0.286856 -0.049615
v -0.504545 0.237194 -0.040123
v -0.345613 0.318039 0.086059
v -0.356476 0.365155 0.009566
v -0.399214 -0.151258 0.115053
v -0.484950 -0.042023 0.170477
v -0.514862 -0.093882 -0.005480
v -0.520715 -0.118641 -0.101577
v -0.423204 -0.208315 -0.144465
v -0.370933 -0.211814 0.005464
v -0.280437 -0.233758 0.055538
v 0.062465 -0.369273 0.140567
v 0.098167 -0.389428 0.198698
v 0.000455 -0.338517 0.228953
v 0.009375 -0.322328 0.122698
v 0.463350 0.033638 0.042991
v 0.421343 0.087568 -0.101334
v 0.382829 -0.250249 -0.084705
v -0.146376 0.523170 0.056827
v -0.216942 0.452031 0.109069
v -0.162142 0.461993 0.230208
v -0.086644 0.523425 0.225196
v -0.235297 0.487264 -0.033515
v -0.256552 0.449304 0.024398
v 0.352465 -0.297379 0.067964
v 0.441193 -0.237704 0.074549
v 0.247155 -0.330145 -0.022330
v 0.361272 -0.256376 -0.016617
v -0.076577 -0.255047 0.025828
v -0.129361 -0.293785 0.109810
v -0.103964 -0.238687 -0.103404
v 0.049221 -0.280932 0.018981
v 0.011255 -0.260439 -0.081075
v -0.337523 0.379967 -0.131207
v 0.169436 -0.277194 -0.080308
v 0.101329 -0.266636 -0.180294
v 0.318750 -0.282554 -0.065143
v -0.202889 -0.239075 -0.219858
v -0.529694 -0.065426 -0.117030
v -0.551720 0.174080 -0.085470
v -0.506311 0.071296 -0.182260
v -0.501747 -0.078665 -0.182720
v -0.527980 0.120564 0.066175
v -0.243670 0.414986 -0.225821
v -0.150301 0.492075 -0.225512
v -0.128449 0.413914 -0.304172
v -0.227645 0.338655 -0.337862
v -0.386870 0.220820 -0.286629
v 0.326947 0.159459 -0.216749
v 0.337568 0.161818 -0.300331
v 0.157125 0.304989 -0.211978
v 0.165134 0.321607 -0.104057
v 0.391377 0.082016 -0.274575
v 0.357417 0.088167 -0.371346
v 0.327928 0.135405 -0.358229
v -0.450192 0.059201 -0.258122
v -0.427150 -0.076323 -0.265062
v 0.028908 0.420765 -0.245681
v -0.015609 0.363340 -0.349747
v -0.092549 0.293332 -0.420615
v 0.278319 0.140683 -0.410205
v 0.148847 0.282522 -0.320434
v -0.357914 -0.016618 -0.397493
v -0.231552 0.138662 -0.441156
v -0.158613 0.008424 -0.518914
v -0.253501 -0.103519 -0.491844
v -0.155398 -0.224458 -0.495641
v -0.281651 -0.191416 -0.336250
v 0.095763 -0.239748 -0.429307
v 0.150823 -0.229284 -0.356105
v 0.012099 -0.245284 -0.292615
v 0.000693 -0.242810 -0.431587
v 0.097510 -0.154056 -0.494817
v 0.241716 -0.119597 -0.440998
v 0.240855 0.113085 -0.427936
v 0.102701 0.236688 -0.398254
v 0.350556 -0.266315 -0.194100
v 0.318508 -0.286322 -0.212559
v -0.149485 0.195216 -0.482074
v -0.057665 0.097780 -0.529084
v -0.114652 -0.244143 -0.351734
v 0.014480 -0.170643 -0.486421
v -0.061924 -0.110075 -0.543216
v 0.029301 -0.034301 -0.550931
v 0.028161 0.171886 -0.474695
v 0.147061 0.037551 -0.510502
v 0.020212 0.429973 -0.146264
v 0.052046 0.437547 -0.061485
v -0.519228 0.192964 -0.118435
v -0.459042 0.295582 -0.092212
v -0.469261 0.209943 0.065286
v 0.108155 -0.363167 0.106159
v 0.094713 -0.354370 0.109971
v -0.423172 0.208904 -0.181669
vt 0.768740 0.658880
vt 0.746720 0.627610
vt 0.800730 0.583710
vt 0.835770 0.607030
vt 0.854350 0.648660
vt 0.698230 0.723320
vt 0.672970 0.678010
vt 0.625990 0.728280
vt 0.624350 0.699960
vt 0.586820 0.723690
vt 0.590730 0.677030
vt 0.595190 0.821800
vt 0.616990 0.645750
vt 0.523880 0.673510
vt 0.536080 0.653580
vt 0.683490 0.634240
vt 0.644640 0.615030
vt 0.672510 0.586770
vt 0.734910 0.589540
vt 0.391070 0.829830
vt 0.401300 0.929040
vt 0.269310 0.877430
vt 0.331880 0.783260
vt 0.825710 0.507460
vt 0.842770 0.543810
vt 0.298280 0.773950
vt 0.268120 0.728130
vt 0.294580 0.721230
vt 0.401760 0.706390
vt 0.490620 0.765840
vt 0.607450 0.565510
vt 0.653210 0.556050
vt 0.717900 0.531630
vt 0.242170 0.784280
vt 0.250990 0.710850
vt 0.773060 0.495920
vt 0.949650 0.542300
vt 0.914740 0.498610
vt 0.932610 0.383880
vt 0.998040 0.413750
vt 0.876630 0.707200
vt 0.246430 0.945390
vt 0.162340 0.868020
vt 0.447320 0.649760
vt 0.326760 0.591190
vt 0.369910 0.561810
vt 0.712020 0.470190
vt 0.778400 0.434620
vt 0.331300 0.671650
vt 0.267930 0.649090
vt 0.313520 0.630610
vt 0.510560 0.549250
vt 0.575450 0.618480
vt 0.386150 0.490860
vt 0.470120 0.485280
vt 0.241620 0.686560
vt 0.247500 0.673820
vt 0.174070 0.686140
vt 0.160280 0.652190
vt 0.273060 0.605050
vt 0.237640 0.556620
vt 0.673470 0.369830
vt 0.697900 0.362990
vt 0.677840 0.436790
vt 0.650920 0.407290
vt 0.881880 0.351230
vt 0.831430 0.400540
vt 0.803100 0.319160
vt 0.777260 0.277440
vt 0.786710 0.231730
vt 0.861100 0.280300
vt 0.905630 0.284050
vt 0.145300 0.716950
vt 0.174510 0.731890
vt 0.170040 0.783590
vt 0.117160 0.721420
vt 0.334680 0.543870
vt 0.327950 0.476540
vt 0.210200 0.527080
vt 0.581020 0.458890
vt 0.622110 0.466200
vt 0.629560 0.518000
vt 0.596660 0.524530
vt 0.591240 0.414230
vt 0.615590 0.429940
vt 0.215170 0.612360
vt 0.251010 0.597950
vt 0.163900 0.583660
vt 0.211030 0.562870
vt 0.954540 0.201680
vt 0.982040 0.282050
vt 0.872650 0.133640
vt 0.042240 0.675100
vt 0.091310 0.636570
vt 0.072030 0.769090
vt 0.001950 0.573170
vt 0.061280 0.571690
vt 0.613710 0.356040
vt 0.125400 0.550400
vt 0.095330 0.484350
vt 0.185800 0.546130
vt 0.781410 0.133440
vt 0.760670 0.283040
vt 0.709100 0.335350
vt 0.701900 0.279700
vt 0.738630 0.256210
vt 0.757480 0.384120
vt 0.565660 0.330490
vt 0.536500 0.349320
vt 0.513740 0.313330
vt 0.540060 0.278470
vt 0.618670 0.269680
vt 0.347930 0.411860
vt 0.339670 0.376270
vt 0.422470 0.384010
vt 0.438440 0.430620
vt 0.305990 0.400980
vt 0.305120 0.354810
vt 0.325650 0.353670
vt 0.673230 0.245490
vt 0.703270 0.215250
vt 0.472690 0.355310
vt 0.466760 0.304780
vt 0.477190 0.256900
vt 0.334090 0.322670
vt 0.407480 0.335800
vt 0.628360 0.169260
vt 0.540460 0.198100
vt 0.497520 0.133890
vt 0.585450 0.118060
vt 0.601400 0.068330
vt 0.703150 0.128630
vt 0.157780 0.299400
vt 0.149690 0.359690
vt 0.066530 0.399000
vt 0.125800 0.274280
vt 0.225650 0.242880
vt 0.223290 0.313340
vt 0.330250 0.301790
vt 0.402300 0.288520
vt 0.189690 0.476220
vt 0.176090 0.468720
vt 0.489120 0.208420
vt 0.429600 0.179950
vt 0.699440 0.058490
vt 0.633230 0.001950
vt 0.745020 0.010080
vt 0.200410 0.214810
vt 0.243960 0.146530
vt 0.333970 0.155310
vt 0.554760 0.009250
vt 0.480630 0.074130
vt 0.405820 0.232070
vt 0.318590 0.236960
vt 0.488780 0.392720
vt 0.495150 0.426390
vt 0.693170 0.328790
vt 0.663680 0.352910
vt 0.722200 0.402460
vt 0.147440 0.687960
vt 0.141250 0.689880
vt 0.654260 0.302850
vn -0.2920 0.0219 0.9561
vn -0.4243 0.3233 0.8458
vn -0.6965 0.1777 0.6952
vn -0.5295 -0.3428 0.7760
vn -0.3776 -0.4725 0.7963
vn -0.1664 0.1125 0.9796
vn -0.1199 0.4391 0.8904
vn -0.1786 0.4334 0.8833
vn -0.1573 0.5578 0.8149
vn 0.0760 0.4561 0.8867
vn 0.0178 0.6063 0.7951
vn 0.0177 -0.0267 0.9995
vn 0.0078 0.5419 0.8404
vn 0.5997 0.5966 0.5332
vn 0.4853 0.8183 0.3080
vn -0.2436 0.5381 0.8069
vn -0.2135 0.6342 0.7431
vn -0.5343 0.6917 0.4859
vn -0.6500 0.5262 0.5482
vn 0.1464 -0.5565 0.8178
vn -0.2418 -0.5602 0.7922
vn -0.2386 -0.8435 0.4811
vn 0.2597 -0.6710 0.6945
vn -0.9114 -0.0709 0.4052
vn -0.7298 -0.3624 0.5796
vn 0.1818 -0.7513 0.6344
vn 0.3698 -0.7786 0.5069
vn 0.4138 -0.7674 0.4897
vn 0.8252 -0.1239 0.5510
vn 0.4916 -0.0934 0.8658
vn -0.0388 0.9531 0.3000
vn -0.6165 0.7223 0.3132
vn -0.7577 0.6122 0.2260
vn -0.0233 -0.8633 0.5041
vn 0.5990 -0.7752 0.2008
vn -0.8640 0.4475 0.2307
vn -0.4792 -0.7698 0.4216
vn -0.5689 -0.7254 0.3875
vn -0.5122 -0.8267 0.2329
vn -0.4001 -0.8886 0.2243
vn 0.8750 0.4341 0.2143
vn 0.9940 0.0513 -0.0964
vn 0.8867 0.4530 -0.0928
vn -0.7427 0.6054 0.2861
vn -0.8932 0.3117 0.3239
vn 0.8591 -0.3103 0.4070
vn 0.6257 -0.7793 0.0337
vn 0.9935 -0.1127 0.0134
vn 0.5552 0.8172 -0.1546
vn 0.3338 0.8416 0.4246
vn 0.6884 0.7108 -0.1443
vn 0.5952 0.7996 -0.0795
vn 0.6811 -0.7247 -0.1043
vn 0.3789 -0.9252 0.0180
vn 0.2801 -0.8939 -0.3500
vn 0.0715 -0.9450 -0.3190
vn 0.9500 -0.2060 -0.2347
vn 0.8892 -0.3556 -0.2878
vn -0.6975 0.6952 0.1739
vn -0.7950 0.5841 0.1637
vn -0.6796 0.6525 0.3351
vn -0.6766 0.6974 0.2362
vn -0.6156 -0.7428 0.2632
vn -0.8901 -0.3270 0.3174
vn -0.8738 -0.4305 0.2262
vn -0.8545 -0.5118 -0.0891
vn -0.5220 -0.8291 -0.2003
vn -0.4210 -0.8997 0.1151
vn -0.2996 -0.9534 0.0348
vn -0.3636 -0.8585 -0.3616
vn -0.0734 -0.9973 -0.0002
vn -0.3457 -0.9277 0.1410
vn -0.3260 -0.8899 -0.3190
vn 0.9608 0.1397 -0.2392
vn 0.9163 0.3345 -0.2200
vn 0.8024 -0.5887 -0.0979
vn -0.0902 0.9957 -0.0205
vn -0.6536 0.7047 0.2759
vn -0.6503 0.7280 0.2169
vn -0.0746 0.9962 0.0457
vn -0.4043 0.9134 -0.0473
vn -0.6598 0.7137 0.2350
vn 0.3672 -0.9205 -0.1332
vn 0.6936 -0.6586 -0.2918
vn 0.1353 -0.9467 -0.2921
vn 0.5548 -0.8089 -0.1943
vn -0.1639 -0.9443 -0.2852
vn -0.2719 -0.9536 -0.1295
vn -0.1201 -0.9899 -0.0756
vn -0.1954 -0.9277 -0.3179
vn -0.1514 -0.9843 -0.0911
vn -0.6739 0.7005 -0.2350
vn -0.1075 -0.9784 -0.1763
vn -0.1027 -0.9876 -0.1182
vn 0.2907 -0.9394 -0.1817
vn -0.1404 -0.9890 -0.0464
vn -0.9843 -0.1181 -0.1310
vn -0.9442 0.2858 -0.1635
vn -0.8422 0.1354 -0.5218
vn -0.8201 -0.2814 -0.4983
vn -0.9313 0.1902 0.3105
vn -0.5645 0.6971 -0.4420
vn -0.0903 0.9415 -0.3246
vn -0.1051 0.7340 -0.6710
vn -0.4636 0.5813 -0.6687
vn -0.7122 0.4011 -0.5760
vn 0.7092 0.6973 -0.1042
vn 0.9586 0.2578 -0.1203
vn 0.6381 0.7549 -0.1510
vn 0.6332 0.7669 -0.1042
vn 0.9267 0.2447 -0.2853
vn 0.7868 0.2198 -0.5767
vn 0.6597 0.5987 -0.4542
vn -0.8204 0.1194 -0.5592
vn -0.7473 -0.3014 -0.5921
vn 0.4626 0.8343 -0.2999
vn 0.2129 0.6904 -0.6914
vn -0.0641 0.5877 -0.8065
vn 0.6300 0.2833 -0.7231
vn 0.4999 0.7320 -0.4629
vn -0.7231 -0.0598 -0.6881
vn -0.5028 0.3141 -0.8053
vn -0.3499 0.1052 -0.9308
vn -0.5999 -0.2087 -0.7723
vn -0.2656 -0.7132 -0.6487
vn -0.5295 -0.7813 -0.3304
vn 0.2372 -0.8631 -0.4458
vn 0.2299 -0.8939 -0.3849
vn -0.0416 -0.9969 -0.0671
vn 0.0728 -0.9066 -0.4157
vn 0.3074 -0.4712 -0.8267
vn 0.6038 -0.3457 -0.7183
vn 0.4514 0.3269 -0.8302
vn 0.3205 0.5954 -0.7367
vn 0.7345 -0.6203 -0.2752
vn 0.2410 -0.9167 -0.3186
vn -0.2647 0.4244 -0.8659
vn -0.0616 0.2911 -0.9547
vn -0.1322 -0.9895 -0.0574
vn 0.1423 -0.5383 -0.8306
vn -0.0269 -0.2569 -0.9661
vn 0.1450 -0.0374 -0.9887
vn 0.2163 0.4859 -0.8468
vn 0.3793 0.1814 -0.9073
vn 0.4329 0.8917 -0.1321
vn 0.4776 0.8713 -0.1129
vn -0.6971 0.4646 -0.5460
vn -0.7306 0.6418 -0.2328
vn -0.7287 0.5679 0.3825
vn -0.0259 -0.8618 -0.5066
vn -0.2553 -0.7298 -0.6342
vn -0.7118 0.4385 -0.5487
usemtl defaultMat.005
s 1
f 1/1/1 2/2/2 3/3/3 4/4/4
f 1/1/1 4/4/4 5/5/5 6/6/6
f 1/1/1 6/6/6 7/7/7 2/2/2
f 8/8/8 9/9/9 7/7/7 6/6/6
f 10/10/10 11/11/11 9/9/9 8/8/8
f 8/8/8 6/6/6 12/12/12 10/10/10
f 9/9/9 11/11/11 13/13/13 7/7/7
f 10/10/10 14/14/14 15/15/15 11/11/11
f 16/16/16 17/17/17 18/18/18 19/19/19
f 7/7/7 13/13/13 17/17/17 16/16/16
f 16/16/16 19/19/19 2/2/2 7/7/7
f 20/20/20 21/21/21 22/22/22 23/23/23
f 3/3/3 2/2/2 19/19/19 24/24/24
f 3/3/3 24/24/24 25/25/25 4/4/4
f 23/23/23 26/26/26 27/27/27 28/28/28
f 23/23/23 29/29/29 30/30/30 20/20/20
f 18/18/18 17/17/17 31/31/31 32/32/32
f 18/18/18 32/32/32 33/33/33 19/19/19
f 26/26/26 23/23/23 22/22/22 34/34/34
f 26/26/26 34/34/34 35/35/35 27/27/27
f 24/24/24 19/19/19 33/33/33 36/36/36
f 37/37/37 38/38/38 39/39/39 40/40/40
f 21/41/21 5/5/5 38/38/38 37/37/37
f 37/42/37 40/43/40 22/22/22 21/21/21
f 41/44/41 29/29/29 42/45/42 43/46/43
f 36/36/36 33/33/33 44/47/44 45/48/45
f 46/49/46 28/28/28 47/50/47 48/51/48
f 43/46/43 15/15/15 14/14/14 41/44/41
f 43/46/43 49/52/49 50/53/50 15/15/15
f 43/46/43 51/54/51 52/55/52 49/52/49
f 53/56/53 54/57/54 27/27/27 35/35/35
f 53/56/53 55/58/55 56/59/56 54/57/54
f 57/60/57 58/61/58 42/45/42 48/51/48
f 59/62/59 60/63/60 61/64/61 62/65/62
f 63/66/63 64/67/64 65/68/65 66/69/66
f 63/66/63 39/39/39 38/38/38 25/25/25
f 63/66/63 66/69/66 67/70/67 68/71/68
f 63/66/63 68/71/68 69/72/69 39/39/39
f 70/73/70 71/74/71 72/75/72 73/76/73
f 74/77/74 75/78/75 51/54/51 43/46/43
f 58/61/58 76/79/76 75/78/75 74/77/74
f 74/77/74 43/46/43 42/45/42 58/61/58
f 77/80/77 78/81/78 79/82/79 80/83/80
f 77/80/77 81/84/81 82/85/82 78/81/78
f 83/86/83 84/87/84 47/50/47 54/57/54
f 85/88/85 86/89/86 84/87/84 83/86/83
f 83/86/83 54/57/54 56/59/56 85/88/85
f 87/90/87 88/91/88 69/72/69 89/92/89
f 87/93/87 90/94/90 73/76/73 88/95/88
f 87/93/87 89/96/89 91/97/91 90/94/90
f 82/85/82 81/84/81 92/98/92 62/65/62
f 82/85/82 62/65/62 61/64/61 78/81/78
f 90/94/90 93/99/93 85/88/85 56/59/56
f 90/94/90 91/97/91 94/100/94 93/99/93
f 85/88/85 93/99/93 95/101/95 86/89/86
f 89/92/89 69/72/69 68/71/68 96/102/96
f 97/103/97 98/104/98 99/105/99 100/106/100
f 97/103/97 65/68/65 101/107/101 98/104/98
f 97/103/97 100/106/100 66/69/66 65/68/65
f 102/108/102 103/109/103 104/110/104 105/111/105
f 92/98/92 81/84/81 103/109/103 102/108/102
f 102/108/102 105/111/105 106/112/106 92/98/92
f 107/113/107 108/114/108 109/115/109 110/116/110
f 107/113/107 51/54/51 75/78/75 111/117/111
f 107/113/107 111/117/111 112/118/112 113/119/113
f 114/120/114 115/121/115 100/106/100 99/105/99
f 104/110/104 103/109/103 116/122/116 117/123/117
f 104/110/104 117/123/117 118/124/118 105/111/105
f 108/114/108 119/125/119 120/126/120 109/115/109
f 121/127/121 106/112/106 105/111/105 122/128/122
f 121/127/121 122/128/122 123/129/123 124/130/124
f 121/127/121 124/130/124 125/131/125 126/132/126
f 121/127/121 126/132/126 67/70/67 115/121/115
f 121/127/121 115/121/115 114/120/114 106/112/106
f 127/133/127 128/134/128 129/135/129 130/136/130
f 127/133/127 131/137/131 132/138/132 128/134/128
f 119/125/119 133/139/133 134/140/134 120/126/120
f 132/138/132 135/141/135 136/142/136 128/134/128
f 132/138/132 112/118/112 111/117/111 135/141/135
f 137/143/137 122/128/122 105/111/105 118/124/118
f 137/143/137 138/144/138 123/129/123 122/128/122
f 139/145/139 125/131/125 130/146/130 129/147/129
f 140/148/140 131/137/131 127/133/127 130/136/130
f 140/148/140 141/149/141 142/150/142 131/137/131
f 140/151/140 130/146/130 125/131/125 141/152/141
f 124/130/124 123/129/123 141/152/141 125/131/125
f 142/150/142 141/152/141 123/129/123 138/144/138
f 142/150/142 138/144/138 143/153/143 144/154/144
f 142/150/142 144/154/144 132/138/132 131/137/131
f 144/154/144 143/153/143 134/140/134 133/139/133
f 144/154/144 133/139/133 112/118/112 132/138/132
f 143/153/143 138/144/138 137/143/137 118/124/118
f 143/153/143 118/124/118 117/123/117 134/140/134
f 134/140/134 117/123/117 116/122/116 120/126/120
f 128/134/128 136/142/136 94/100/94 129/135/129
f 126/132/126 96/102/96 68/71/68 67/70/67
f 126/132/126 125/131/125 139/145/139 96/102/96
f 120/126/120 116/122/116 145/155/145 109/115/109
f 116/122/116 103/109/103 81/84/81 145/155/145
f 115/121/115 67/70/67 66/69/66 100/106/100
f 107/113/107 110/116/110 52/55/52 51/54/51
f 110/116/110 109/115/109 145/155/145 146/156/146
f 110/116/110 146/156/146 77/80/77 52/55/52
f 136/142/136 95/101/95 93/99/93 94/100/94
f 135/141/135 111/117/111 75/78/75 76/79/76
f 147/157/147 99/105/99 98/104/98 60/63/60
f 147/157/147 60/63/60 59/62/59 148/158/148
f 148/158/148 59/62/59 62/65/62 92/98/92
f 95/101/95 76/79/76 58/61/58 86/89/86
f 89/92/89 96/102/96 139/145/139 129/147/129
f 89/96/89 129/135/129 94/100/94 91/97/91
f 88/95/88 73/76/73 72/75/72 40/43/40
f 88/91/88 40/40/40 39/39/39 69/72/69
f 86/89/86 58/61/58 57/60/57 84/87/84
f 84/87/84 57/60/57 48/51/48 47/50/47
f 146/156/146 145/155/145 81/84/81 77/80/77
f 77/80/77 80/83/80 49/52/49 52/55/52
f 80/83/80 79/82/79 32/32/32 31/31/31
f 80/83/80 31/31/31 50/53/50 49/52/49
f 79/82/79 78/81/78 61/64/61 44/47/44
f 79/82/79 44/47/44 33/33/33 32/32/32
f 72/75/72 71/74/71 35/35/35 34/34/34
f 72/75/72 34/34/34 22/22/22 40/43/40
f 63/66/63 25/25/25 24/24/24 64/67/64
f 71/74/71 55/58/55 53/56/53 35/35/35
f 54/57/54 47/50/47 28/28/28 27/27/27
f 50/53/50 31/31/31 17/17/17 13/13/13
f 50/53/50 13/13/13 11/11/11 15/15/15
f 41/44/41 14/14/14 30/30/30 29/29/29
f 38/38/38 5/5/5 4/4/4 25/25/25
f 64/67/64 24/24/24 36/36/36 45/48/45
f 64/67/64 45/48/45 101/107/101 65/68/65
f 46/49/46 48/51/48 42/45/42 29/29/29
f 46/49/46 29/29/29 23/23/23 28/28/28
f 14/14/14 10/10/10 12/12/12 30/30/30
f 30/30/30 12/12/12 21/21/21 20/20/20
f 12/12/12 6/6/6 5/5/5 21/41/21
f 101/107/101 45/48/45 44/47/44 149/159/149
f 44/47/44 61/64/61 60/63/60 149/159/149
f 60/63/60 98/104/98 101/107/101 149/159/149
f 56/59/56 55/58/55 150/160/150 151/161/151
f 71/74/71 70/73/70 150/160/150 55/58/55
f 151/161/151 150/160/150 70/73/70 73/76/73
f 90/94/90 56/59/56 151/161/151 73/76/73
f 76/79/76 95/101/95 136/142/136 135/141/135
f 113/119/113 112/118/112 133/139/133
f 113/119/113 133/139/133 119/125/119
f 113/119/113 119/125/119 108/114/108
f 113/119/113 108/114/108 107/113/107
f 148/158/148 92/98/92 106/112/106 152/162/152
f 106/112/106 114/120/114 99/105/99 152/162/152
f 99/105/99 147/157/147 148/158/148 152/162/152
