# Blender v2.90.1 OBJ File: ''
# www.blender.org
mtllib WoodenSign03.mtl
o WoodenSign03_WoodenSign.004
v 0.526307 0.095415 0.021826
v 0.526307 0.095415 -0.000000
v -0.526307 0.095415 -0.000000
v -0.526307 0.095415 0.021826
v -0.526307 -0.095415 0.021826
v -0.526307 -0.095415 -0.000000
v 0.526307 -0.095415 -0.000000
v 0.526307 -0.095415 0.021826
v 0.526307 0.095415 -0.021825
v -0.526307 0.095415 -0.021825
v -0.526307 -0.095415 -0.021825
v 0.526307 -0.095415 -0.021825
vt 0.806462 0.332087
vt 0.819571 0.332087
vt 0.819571 0.964263
vt 0.806463 0.964264
vt 0.691856 0.964264
vt 0.678746 0.964264
vt 0.678746 0.332087
vt 0.691854 0.332087
vt 0.806463 0.977371
vt 0.691856 0.977372
vt 0.806462 0.318979
vt 0.691854 0.318980
vt 0.806462 0.332087
vt 0.806463 0.964264
vt 0.691856 0.964264
vt 0.691854 0.332087
vn 0.5774 0.5773 0.5774
vn 0.7071 0.7071 0.0000
vn -0.7071 0.7071 0.0000
vn -0.5774 0.5774 0.5774
vn -0.5774 -0.5774 0.5774
vn -0.7071 -0.7071 0.0000
vn 0.7071 -0.7071 0.0000
vn 0.5774 -0.5774 0.5774
vn 0.5774 0.5774 -0.5774
vn -0.5774 0.5774 -0.5774
vn -0.5774 -0.5774 -0.5774
vn 0.5774 -0.5774 -0.5774
g WoodenSign03_WoodenSign.004_WoodenSign.001
usemtl WoodenSign.001
s 1
f 1/1/1 2/2/2 3/3/3
f 3/3/3 4/4/4 1/1/1
f 5/5/5 6/6/6 7/7/7
f 7/7/7 8/8/8 5/5/5
f 5/5/5 8/8/8 1/1/1
f 1/1/1 4/4/4 5/5/5
f 5/5/5 4/4/4 3/9/3
f 3/9/3 6/10/6 5/5/5
f 2/11/2 1/1/1 8/8/8
f 8/8/8 7/12/7 2/11/2
f 3/3/3 2/2/2 9/13/9
f 9/13/9 10/14/10 3/3/3
f 7/7/7 6/6/6 11/15/11
f 11/15/11 12/16/12 7/7/7
f 9/13/9 12/16/12 11/15/11
f 11/15/11 10/14/10 9/13/9
f 3/9/3 10/14/10 11/15/11
f 11/15/11 6/10/6 3/9/3
f 12/16/12 9/13/9 2/11/2
f 2/11/2 7/12/7 12/16/12
