# Blender v2.90.1 OBJ File: 'tombBlender.blend'
# www.blender.org
mtllib Grass01.mtl
o Grass04_Plane.001
v -0.010486 0.000078 -0.022541
v 0.099832 0.000078 0.152055
v -0.025286 0.194273 -0.019453
v 0.085032 0.194273 0.155143
v -0.050027 0.093944 0.001453
v 0.060291 0.093945 0.176050
v -0.058855 0.000078 0.046901
v 0.147615 0.000078 0.051812
v -0.068195 0.197913 0.031337
v 0.138275 0.197913 0.036248
v -0.012502 0.000078 0.144157
v 0.105408 0.000078 -0.025405
v -0.018492 0.191952 0.141373
v 0.099418 0.191952 -0.028188
v -0.055085 0.103342 -0.004146
v 0.151386 0.103342 0.000765
v 0.013336 0.103342 0.169956
v 0.131246 0.103342 0.000394
v 0.012266 0.000078 -0.184305
v 0.010791 0.000078 -0.017429
v 0.012266 0.166961 -0.184305
v 0.010791 0.166961 -0.017429
v -0.070339 0.000078 -0.145950
v 0.068081 0.000078 -0.052731
v -0.070339 0.166961 -0.145949
v 0.068081 0.166961 -0.052731
v 0.094969 0.000078 -0.101268
v -0.071912 0.000078 -0.100466
v 0.094969 0.166961 -0.101268
v -0.071912 0.166961 -0.100466
v 0.055490 0.000078 -0.183342
v -0.035831 0.000078 -0.043662
v 0.055490 0.166961 -0.183342
v -0.035831 0.166961 -0.043662
v -0.104858 0.000078 -0.044262
v -0.106307 0.000078 0.119652
v -0.104858 0.163999 -0.044262
v -0.106307 0.163999 0.119653
v -0.185997 0.000078 -0.006587
v -0.050034 0.000078 0.084976
v -0.185997 0.163999 -0.006587
v -0.050034 0.163999 0.084976
v -0.023624 0.000078 0.037301
v -0.187542 0.000078 0.038089
v -0.023624 0.163999 0.037301
v -0.187542 0.163999 0.038089
v -0.062402 0.000078 -0.043316
v -0.152101 0.000078 0.093884
v -0.062402 0.163999 -0.043316
v -0.152101 0.163999 0.093884
v 0.067983 0.000078 -0.105030
v 0.066659 0.000078 0.044773
v 0.067983 0.149887 -0.105030
v 0.066659 0.149887 0.044773
v -0.006170 0.000078 -0.070599
v 0.118088 0.000078 0.013082
v -0.006170 0.149887 -0.070599
v 0.118088 0.149887 0.013082
v 0.142225 0.000078 -0.030489
v -0.007582 0.000078 -0.029769
v 0.142225 0.149887 -0.030489
v -0.007582 0.149887 -0.029769
v 0.106785 0.000078 -0.104166
v 0.024808 0.000078 0.021223
v 0.106785 0.149887 -0.104166
v 0.024808 0.149887 0.021223
vt 0.000000 0.500000
vt 1.000000 1.000000
vt 0.000000 1.000000
vt 0.000000 0.000000
vt 1.000000 0.500000
vt 1.000000 0.000000
vt 0.000000 0.500000
vt 1.000000 1.000000
vt 1.000000 0.500000
vt 1.000000 0.500000
vt 0.000000 1.000000
vt 0.000000 0.500000
vt 1.000000 0.000000
vt 0.000000 0.000000
vt 0.000000 0.000000
vt 0.000000 1.000000
vt 1.000000 0.000000
vt 0.000000 0.000000
vt 0.000000 1.000000
vt 1.000000 0.000000
vt 0.000000 0.000000
vt 1.000000 0.000000
vt 0.000000 1.000000
vt 0.000000 0.000000
vt 1.000000 0.000000
vt 0.000000 1.000000
vt 0.000000 0.000000
vt 1.000000 0.000000
vt 0.000000 1.000000
vt 0.000000 0.000000
vt 1.000000 0.000000
vt 0.000000 1.000000
vt 0.000000 0.000000
vt 0.000000 1.000000
vt 1.000000 0.000000
vt 0.000000 0.000000
vt 1.000000 0.000000
vt 0.000000 1.000000
vt 0.000000 0.000000
vt 0.000000 1.000000
vt 1.000000 0.000000
vt 0.000000 0.000000
vt 0.000000 1.000000
vt 1.000000 0.000000
vt 0.000000 0.000000
vt 1.000000 0.000000
vt 0.000000 1.000000
vt 0.000000 0.000000
vt 0.000000 1.000000
vt 1.000000 0.000000
vt 0.000000 0.000000
vt 0.000000 1.000000
vt 1.000000 1.000000
vt 1.000000 0.000000
vt 1.000000 1.000000
vt 1.000000 1.000000
vt 1.000000 1.000000
vt 1.000000 1.000000
vt 1.000000 1.000000
vt 1.000000 1.000000
vt 1.000000 1.000000
vt 1.000000 1.000000
vt 1.000000 1.000000
vt 1.000000 1.000000
vt 1.000000 1.000000
vt 1.000000 1.000000
vn -0.4700 0.8826 0.0136
vn 0.3236 0.7393 0.5905
vn -0.1284 0.9868 -0.0988
vn -0.4218 0.0032 -0.9067
vn 0.2892 0.4507 0.8445
vn 0.5488 0.0005 0.8359
vn -0.4701 0.8819 -0.0354
vn 0.5664 0.8106 0.1485
vn 0.8259 0.5638 0.0042
vn 0.7915 0.6110 0.0141
vn -0.0774 0.8027 0.5913
vn 0.0669 0.5184 0.8525
vn 0.9436 0.0005 0.3312
vn -0.7821 0.0010 0.6232
vn -0.0864 0.0006 0.9963
vn 0.0492 0.6706 -0.7402
vn 0.5264 0.0000 -0.8502
vn 0.0664 0.0005 -0.9978
vn -0.3023 0.7177 -0.6273
vn 0.7906 0.0009 -0.6124
vn -0.4342 0.0005 -0.9008
vn -0.5820 0.0006 -0.8132
vn 0.4374 0.7689 -0.4664
vn 0.6840 0.0000 -0.7294
vn -0.6344 0.0014 -0.7730
vn 0.2184 0.6571 -0.7215
vn 0.2897 0.0000 -0.9571
vn -0.6642 0.0005 0.7476
vn -0.5253 0.8215 -0.2218
vn -0.9213 0.0007 -0.3889
vn -0.5074 0.0008 0.8617
vn -0.7498 0.6611 -0.0265
vn -0.9994 0.0003 -0.0354
vn -0.1391 0.9656 0.2196
vn -0.9800 0.0000 0.1991
vn -0.5350 0.0018 0.8448
vn -0.8510 0.0004 0.5252
vn -0.3453 0.9074 -0.2397
vn -0.8215 0.0010 -0.5702
vn 0.3482 0.7677 -0.5380
vn 0.8301 0.0009 0.5576
vn 0.5434 0.0006 -0.8395
vn -0.0372 0.9040 -0.4258
vn 0.9939 0.0006 0.1101
vn -0.0871 0.0011 -0.9962
vn -0.2468 0.0026 -0.9691
vn 0.6810 0.7176 -0.1460
vn 0.9778 0.0005 -0.2096
vn 0.5049 0.7088 -0.4926
vn 0.7599 0.0024 0.6501
vn 0.7158 0.0005 -0.6983
vn 0.2892 0.4506 0.8446
vn -0.4700 0.8826 0.0137
vn -0.3222 0.9350 0.1481
vn 0.4560 0.8805 -0.1293
vn 0.9722 0.0007 -0.2343
vn 0.0642 0.9925 -0.1036
vn 0.3624 0.8887 -0.2807
vn -0.3462 0.8039 -0.4837
vn -0.2033 0.9473 -0.2478
vn -0.4639 0.7156 0.5221
vn -0.2615 0.8570 0.4440
vn -0.7441 0.6507 0.1511
vn -0.6270 0.6761 0.3870
vn 0.3920 0.8815 0.2634
vn 0.6174 0.7837 0.0684
vn -0.0495 0.9796 -0.1946
vn 0.1617 0.9771 0.1384
g Grass04_Plane.001_Grass01
usemtl Grass01
s 1
f 5/1/1 4/2/2 3/3/3
f 1/4/4 6/5/5 2/6/6
f 15/7/7 10/8/8 16/9/9
f 18/10/10 13/11/11 17/12/12
f 8/13/13 15/7/7 7/14/14
f 11/15/15 18/10/10 17/12/12
f 21/16/16 20/17/17 19/18/18
f 25/19/19 24/20/20 23/21/21
f 28/22/22 29/23/23 27/24/24
f 32/25/25 33/26/26 31/27/27
f 36/28/28 37/29/29 35/30/30
f 40/31/31 41/32/32 39/33/33
f 45/34/34 44/35/35 43/36/36
f 48/37/37 49/38/38 47/39/39
f 53/40/40 52/41/41 51/42/42
f 57/43/43 56/44/44 55/45/45
f 60/46/46 61/47/47 59/48/48
f 65/49/49 64/50/50 63/51/51
f 5/1/1 6/5/52 4/2/2
f 1/4/4 5/1/53 6/5/5
f 15/7/7 9/52/54 10/8/8
f 18/10/10 14/53/55 13/11/11
f 8/13/13 16/9/9 15/7/7
f 11/15/15 12/54/56 18/10/10
f 21/16/16 22/55/57 20/17/17
f 25/19/19 26/56/58 24/20/20
f 28/22/22 30/57/59 29/23/23
f 32/25/25 34/58/60 33/26/26
f 36/28/28 38/59/61 37/29/29
f 40/31/31 42/60/62 41/32/32
f 45/34/34 46/61/63 44/35/35
f 48/37/37 50/62/64 49/38/38
f 53/40/40 54/63/65 52/41/41
f 57/43/43 58/64/66 56/44/44
f 60/46/46 62/65/67 61/47/47
f 65/49/49 66/66/68 64/50/50
