# Blender v2.90.1 OBJ File: 'tombBlender.blend'
# www.blender.org
mtllib Grass02.mtl
o Grass05_Plane.002
v -0.054308 0.000004 -0.090167
v 0.077254 0.000004 0.118052
v -0.071958 0.231595 -0.086485
v 0.059604 0.231596 0.121734
v -0.101463 0.111946 -0.061552
v 0.030099 0.111946 0.146667
v -0.111992 0.000004 -0.007352
v 0.134239 0.000004 -0.001495
v -0.123130 0.235937 -0.025913
v 0.123101 0.235937 -0.020056
v -0.056712 0.000004 0.108632
v 0.083905 0.000004 -0.093582
v -0.063856 0.228828 0.105313
v 0.076761 0.228828 -0.096902
v -0.107495 0.123154 -0.068230
v 0.138736 0.123154 -0.062372
v -0.025898 0.123154 0.139400
v 0.114718 0.123154 -0.062815
v 0.020457 0.000004 0.136341
v -0.058583 0.000004 0.213021
v 0.020457 0.110127 0.136341
v -0.058583 0.110126 0.213021
v -0.060992 0.000004 0.145281
v 0.030349 0.000004 0.206794
v -0.060992 0.110126 0.145281
v 0.030349 0.110127 0.206794
v -0.015375 0.000004 -0.102526
v -0.112367 0.000004 -0.023635
v -0.029918 0.127123 -0.110238
v -0.126910 0.127123 -0.031348
v -0.125204 0.000004 -0.096855
v -0.021503 0.000004 -0.027019
v -0.116594 0.123251 -0.114473
v -0.012893 0.123251 -0.044636
v -0.015375 0.062516 -0.102526
v -0.112367 0.062516 -0.023635
v -0.125204 0.062516 -0.096855
v -0.021503 0.062516 -0.027019
v -0.087351 0.000004 0.021906
v -0.171444 0.000004 -0.103121
v -0.076623 0.141682 0.019346
v -0.160715 0.141682 -0.105681
v -0.059016 0.068485 0.003583
v -0.143109 0.068485 -0.121444
v -0.053525 0.000004 -0.029745
v -0.204200 0.000004 -0.029020
v -0.046390 0.144338 -0.018589
v -0.197064 0.144337 -0.017865
v -0.089358 0.000004 -0.099703
v -0.171810 0.000004 0.026412
v -0.084931 0.139988 -0.097798
v -0.167383 0.139988 0.028317
v -0.055211 0.075342 0.007561
v -0.205885 0.075342 0.008285
v -0.108738 0.075342 -0.117979
v -0.191191 0.075342 0.008136
v -0.086767 0.000004 0.005332
v -0.222647 0.000004 0.115854
v -0.107141 0.178091 -0.005472
v -0.243022 0.178091 0.105049
v -0.240631 0.000004 0.013276
v -0.095352 0.000004 0.111114
v -0.228570 0.172667 -0.011404
v -0.083290 0.172667 0.086433
v -0.086767 0.087580 0.005332
v -0.222647 0.087580 0.115854
v -0.240632 0.087580 0.013276
v -0.095352 0.087580 0.111114
v 0.212547 0.000004 0.049805
v 0.055294 0.000004 0.177711
v 0.188968 0.206103 0.037301
v 0.031715 0.206103 0.165206
v 0.034481 0.000004 0.058998
v 0.202612 0.000004 0.172225
v 0.048440 0.199825 0.030436
v 0.216571 0.199825 0.143662
v 0.212547 0.101355 0.049805
v 0.055294 0.101355 0.177711
v 0.034481 0.101355 0.058998
v 0.202612 0.101355 0.172225
v 0.133048 0.000004 -0.080408
v 0.005942 0.000004 -0.079797
v 0.140489 0.121761 -0.102468
v 0.013383 0.121761 -0.101857
v 0.102978 0.000004 -0.142921
v 0.033423 0.000004 -0.036533
v 0.123062 0.118092 -0.125897
v 0.053507 0.118092 -0.019509
v 0.133048 0.063558 -0.080408
v 0.005942 0.063558 -0.079797
v 0.102978 0.063558 -0.142921
v 0.033423 0.063558 -0.036533
vt 0.000000 0.500000
vt 1.000000 1.000000
vt 0.000000 1.000000
vt 0.000000 0.000000
vt 1.000000 0.500000
vt 1.000000 0.000000
vt 0.000000 0.500000
vt 1.000000 1.000000
vt 1.000000 0.500000
vt 1.000000 0.500000
vt 0.000000 1.000000
vt 0.000000 0.500000
vt 1.000000 0.000000
vt 0.000000 0.000000
vt 0.000000 0.000000
vt 0.000000 1.000000
vt 1.000000 0.000000
vt 0.000000 0.000000
vt 1.000000 0.000000
vt 0.000000 1.000000
vt 0.000000 0.000000
vt 1.000000 0.500000
vt 0.000000 1.000000
vt 0.000000 0.500000
vt 0.000000 0.500000
vt 1.000000 1.000000
vt 0.000000 1.000000
vt 1.000000 0.000000
vt 0.000000 0.000000
vt 1.000000 0.000000
vt 0.000000 0.000000
vt 0.000000 0.500000
vt 1.000000 1.000000
vt 1.000000 0.500000
vt 0.000000 0.000000
vt 1.000000 0.000000
vt 0.000000 0.500000
vt 1.000000 1.000000
vt 1.000000 0.500000
vt 1.000000 0.500000
vt 0.000000 1.000000
vt 0.000000 0.500000
vt 1.000000 0.000000
vt 0.000000 0.000000
vt 0.000000 0.000000
vt 1.000000 0.500000
vt 0.000000 1.000000
vt 0.000000 0.500000
vt 0.000000 0.500000
vt 1.000000 1.000000
vt 0.000000 1.000000
vt 1.000000 0.000000
vt 0.000000 0.000000
vt 1.000000 0.000000
vt 0.000000 0.000000
vt 0.000000 1.000000
vt 1.000000 0.500000
vt 0.000000 0.500000
vt 0.000000 0.500000
vt 1.000000 1.000000
vt 0.000000 1.000000
vt 1.000000 0.000000
vt 0.000000 0.000000
vt 1.000000 0.000000
vt 0.000000 0.000000
vt 0.000000 0.500000
vt 1.000000 1.000000
vt 0.000000 1.000000
vt 1.000000 0.500000
vt 0.000000 1.000000
vt 0.000000 0.500000
vt 1.000000 0.000000
vt 0.000000 0.000000
vt 1.000000 0.000000
vt 0.000000 0.000000
vt 0.000000 1.000000
vt 1.000000 1.000000
vt 1.000000 0.000000
vt 1.000000 1.000000
vt 1.000000 1.000000
vt 1.000000 1.000000
vt 1.000000 0.500000
vt 0.000000 1.000000
vt 0.000000 1.000000
vt 1.000000 1.000000
vt 1.000000 0.000000
vt 1.000000 1.000000
vt 1.000000 0.500000
vt 1.000000 1.000000
vt 1.000000 0.500000
vt 1.000000 0.500000
vt 1.000000 1.000000
vn -0.6219 0.6862 -0.3773
vn 0.2221 0.8630 0.4537
vn -0.2795 0.8995 -0.3359
vn -0.5159 0.0000 -0.8566
vn 0.1610 0.5988 0.7845
vn 0.5476 0.0000 0.8368
vn -0.6014 0.6888 -0.4048
vn 0.4613 0.8841 -0.0751
vn 0.7089 0.6292 -0.3187
vn 0.6524 0.6808 -0.3330
vn -0.2458 0.8805 0.4053
vn -0.1380 0.6557 0.7423
vn 0.9999 -0.0000 -0.0111
vn -0.9979 0.0000 -0.0655
vn -0.4628 0.0001 0.8865
vn 0.1159 0.6241 0.7727
vn -0.2652 0.0000 0.9642
vn 0.1484 0.0000 0.9889
vn 0.1452 0.0000 0.9894
vn -0.3173 0.5729 0.7557
vn -0.3871 -0.0000 0.9220
vn -0.8591 0.4799 -0.1780
vn -0.1751 0.7438 -0.6450
vn -0.1243 0.5187 -0.8459
vn -0.7357 0.3673 -0.5691
vn -0.0979 0.9357 -0.3389
vn -0.5697 0.6022 -0.5593
vn -0.9786 0.0000 -0.2058
vn -0.1483 0.0002 -0.9889
vn -0.6227 -0.0000 -0.7824
vn -0.7910 0.0000 -0.6119
vn -0.6443 0.7642 0.0298
vn -0.6727 0.5930 -0.4424
vn -0.7021 0.3430 -0.6240
vn -0.9700 0.0000 0.2433
vn -0.8569 0.0000 -0.5154
vn -0.5891 0.8040 0.0807
vn -0.8046 0.5893 -0.0729
vn -0.9384 0.3434 0.0377
vn -0.9319 0.3617 0.0280
vn -0.4453 0.7340 -0.5128
vn -0.6135 0.4251 -0.6656
vn -0.9901 0.0000 -0.1407
vn -0.8741 0.0000 -0.4858
vn -0.6674 0.0000 -0.7447
vn -0.8349 0.3303 0.4403
vn -0.5154 0.8566 -0.0263
vn -0.7008 0.7117 0.0479
vn -0.9382 0.3411 0.0589
vn -0.3961 0.8211 0.4111
vn -0.7973 0.6023 -0.0398
vn -0.8871 0.0000 0.4616
vn -0.9981 -0.0000 0.0613
vn -0.6512 0.0000 0.7589
vn -0.9985 0.0000 0.0551
vn 0.6698 0.7306 0.1323
vn 0.2623 0.4772 0.8387
vn 0.8829 0.4202 0.2096
vn 0.2754 0.8276 0.4891
vn 0.6606 0.6095 0.4383
vn 0.2331 0.9614 0.1465
vn 0.2971 0.0000 0.9549
vn 0.9736 0.0000 0.2282
vn 0.7619 0.0000 0.6477
vn 0.5046 0.0000 0.8634
vn 0.7964 0.3829 -0.4681
vn 0.0840 0.7643 -0.6394
vn 0.6618 0.5736 -0.4827
vn 0.4149 0.7888 -0.4534
vn 0.5805 0.5571 -0.5939
vn 0.5499 0.3394 -0.7632
vn 0.0743 0.0000 -0.9972
vn 0.8558 0.0000 -0.5172
vn 0.5499 0.3393 -0.7632
vn 0.6750 0.0000 -0.7378
vn 0.5846 0.0000 -0.8113
vn -0.4604 0.8824 -0.0969
vn 0.2952 0.8798 -0.3726
vn 0.6676 0.0001 -0.7446
vn -0.2373 0.4461 0.8629
vn 0.1285 0.4661 0.8753
vn -0.6960 0.6972 -0.1719
vn -0.3011 0.8753 -0.3783
vn -0.4723 0.8733 0.1192
vn -0.3037 0.9450 -0.1217
vn -0.7607 0.6362 0.1287
vn -0.9384 0.3434 0.0378
vn -0.9884 0.0001 0.1519
vn -0.7617 0.5581 0.3293
vn -0.5589 0.5133 0.6513
vn 0.1192 0.7747 0.6210
vn 0.7120 0.3561 0.6052
vn 0.0581 0.6220 -0.7809
vn 0.4081 0.9007 -0.1488
vn 0.4148 0.7889 -0.4534
g Grass05_Plane.002_Grass01.001
usemtl Grass01.001
s 1
f 5/1/1 4/2/2 3/3/3
f 1/4/4 6/5/5 2/6/6
f 15/7/7 10/8/8 16/9/9
f 18/10/10 13/11/11 17/12/12
f 15/7/7 8/13/13 7/14/14
f 11/15/15 18/10/10 17/12/12
f 21/16/16 20/17/17 19/18/18
f 24/19/19 25/20/20 23/21/21
f 36/22/22 29/23/23 35/24/24
f 37/25/25 34/26/26 33/27/27
f 28/28/28 35/24/24 27/29/29
f 37/25/25 32/30/30 31/31/31
f 43/32/32 42/33/33 44/34/34
f 39/35/35 44/34/34 40/36/36
f 53/37/37 48/38/38 54/39/39
f 56/40/40 51/41/41 55/42/42
f 46/43/43 53/37/37 45/44/44
f 49/45/45 56/40/40 55/42/42
f 66/46/46 59/47/47 65/48/48
f 67/49/49 64/50/50 63/51/51
f 58/52/52 65/48/48 57/53/53
f 62/54/54 67/49/49 61/55/55
f 71/56/56 78/57/57 77/58/58
f 79/59/59 76/60/60 75/61/61
f 77/58/58 70/62/62 69/63/63
f 74/64/64 79/59/59 73/65/65
f 89/66/66 84/67/67 83/68/68
f 92/69/69 87/70/70 91/71/71
f 82/72/72 89/66/66 81/73/73
f 91/71/74 86/74/75 85/75/76
f 5/1/1 6/5/5 4/2/2
f 1/4/4 5/1/1 6/5/5
f 15/7/7 9/76/77 10/8/8
f 18/10/10 14/77/78 13/11/11
f 15/7/7 16/9/9 8/13/13
f 11/15/15 12/78/79 18/10/10
f 21/16/16 22/79/80 20/17/17
f 24/19/19 26/80/81 25/20/20
f 36/22/22 30/81/82 29/23/23
f 37/25/25 38/82/83 34/26/26
f 28/28/28 36/22/22 35/24/24
f 37/25/25 38/82/83 32/30/30
f 43/32/32 41/83/84 42/33/33
f 39/35/35 43/32/32 44/34/34
f 53/37/37 47/84/85 48/38/38
f 56/40/40 52/85/86 51/41/41
f 46/43/43 54/39/87 53/37/37
f 49/45/45 50/86/88 56/40/40
f 66/46/46 60/87/89 59/47/47
f 67/49/49 68/88/90 64/50/50
f 58/52/52 66/46/46 65/48/48
f 62/54/54 68/88/90 67/49/49
f 71/56/56 72/89/91 78/57/57
f 79/59/59 80/90/92 76/60/60
f 77/58/58 78/57/57 70/62/62
f 74/64/64 80/90/92 79/59/59
f 89/66/66 90/91/93 84/67/67
f 92/69/69 88/92/94 87/70/70
f 82/72/72 90/91/93 89/66/66
f 91/71/74 92/69/95 86/74/75
