# Blender v2.90.1 OBJ File: 'StylizedRockProject.blend'
# www.blender.org
mtllib Rock27_low.mtl
o Rock27_low
v 0.551510 2.655526 0.888227
v 0.693568 2.389437 0.881555
v 0.283149 2.378849 0.918273
v 0.717606 3.243188 0.911764
v 0.581902 3.120974 0.915602
v 0.387695 3.094448 0.913292
v 0.496881 3.894362 0.971417
v -0.069158 2.406991 0.991233
v 0.736061 4.152093 0.948076
v 0.846237 3.975753 0.832176
v 0.964350 4.748225 0.590978
v 1.112601 4.454388 0.411061
v 1.127958 3.526415 0.506498
v 1.403817 3.522368 0.272033
v 0.997722 4.580920 0.578252
v 1.259016 4.563550 0.240004
v 1.079669 4.534957 0.470383
v 0.612432 4.421557 0.915753
v 1.387533 4.874569 0.140688
v 1.220319 5.275676 0.302119
v 0.545032 5.269020 0.835438
v -0.024209 4.767389 1.202914
v -0.208826 3.443190 1.359926
v -0.666677 -0.065877 -0.482432
v 0.724520 -0.047138 -1.439134
v 1.649909 -0.044602 -0.843035
v 2.091397 3.120827 -1.028883
v 2.346510 4.211925 -0.794520
v 2.520111 3.466267 -0.301766
v -0.709831 5.259866 1.032207
v -1.742525 5.066583 0.216121
v -2.150917 4.412810 0.783741
v 1.388690 2.523002 -1.224921
v 0.285022 2.824188 -0.649509
v 1.665926 3.822771 -1.272742
v -0.942963 4.655180 1.272671
v 2.519435 0.581459 -1.128936
v 1.921679 1.281513 -1.471579
v 2.796448 1.515076 -0.367084
v 1.631381 4.680948 0.219218
v 1.424001 1.712602 0.338686
v 0.915468 0.928330 0.132310
v 1.601508 1.540625 0.445346
v -0.495279 1.732557 1.543907
v -2.117920 2.055254 0.565417
v -1.346410 0.485418 0.728867
v 0.801901 2.724719 0.877130
v -2.319865 2.940604 -0.680230
v -2.395559 1.608653 -0.756763
v -2.700050 2.663040 -0.210315
v 0.591172 1.999105 0.939312
v 1.062067 2.041137 0.498837
v -1.034602 4.726954 -0.111321
v -0.601092 3.025626 0.013853
v -1.849974 4.073403 -0.491201
v -0.833208 5.141735 0.497253
v 0.400152 3.396190 0.907978
v 1.106392 5.354189 -0.477769
v -0.354102 5.416710 0.596546
v 0.071023 1.428947 1.036640
v 0.780178 1.350867 0.536398
v 0.225189 1.956245 0.870157
v -0.004136 0.590435 0.889382
v -0.618935 -0.084292 0.362932
v 0.482319 -0.048212 -0.114940
v -1.088519 2.457554 -0.093376
v -2.388323 1.167310 -0.537588
v -2.574317 1.712548 -0.259231
v -1.943384 -0.064946 -1.204552
v 2.077860 -0.009157 0.071782
v 2.622131 -0.036720 -0.764149
v -0.942903 1.612262 0.084095
v -1.738752 0.361189 -1.064513
v -0.500317 0.440141 -0.455622
v 0.161881 1.582631 -0.217967
v 0.658350 1.070401 -0.978376
v -0.158666 2.199265 1.339202
v -0.953617 2.392725 1.168590
v -2.432548 4.129593 -0.158412
v -2.668067 3.221730 0.115331
v -0.191443 2.733143 1.354475
v -1.443755 2.907212 1.340539
v 1.273509 5.316666 -0.370058
v -2.163588 4.413270 -0.307693
v 2.194189 5.256594 -0.346634
v 1.727656 5.785344 -0.774919
v -1.501664 3.197835 -0.465579
v -0.416551 1.853254 -0.131613
v 0.601357 1.790657 -0.811218
v 2.584343 1.573879 -0.116860
v 1.102090 -0.003753 0.150899
v -2.102898 3.354294 0.949470
v -2.280609 -0.055069 -0.456686
v -0.282854 5.181386 0.883613
v 0.398421 4.809785 0.963066
v 1.658792 3.269714 0.379572
v -0.374906 4.545971 0.265667
v -0.456579 1.172543 1.480623
v 2.300559 2.993307 -0.253584
v 1.962131 2.044596 -1.251368
v 1.587694 5.290287 -1.047056
v -1.370327 -0.023456 0.884813
v 1.586874 0.360983 -1.440660
v 1.297841 2.540857 0.316391
v 1.142040 0.835760 -1.568913
v 1.679105 5.338316 -0.053342
v -1.501700 4.162153 1.343265
vt 0.309526 0.770479
vt 0.286819 0.761814
vt 0.305647 0.737876
vt 0.242401 0.780297
vt 0.250623 0.768520
vt 0.189470 0.768844
vt 0.250717 0.752971
vt 0.298389 0.712264
vt 0.171796 0.788090
vt 0.186103 0.798788
vt 0.226673 0.859491
vt 0.149065 0.837009
vt 0.224017 0.829667
vt 0.142908 0.831591
vt 0.139845 0.820853
vt 0.139427 0.855090
vt 0.127465 0.818330
vt 0.151181 0.781960
vt 0.110691 0.869063
vt 0.085356 0.838993
vt 0.095040 0.783877
vt 0.123689 0.732692
vt 0.212803 0.701776
vt 0.264586 0.189178
vt 0.124043 0.196653
vt 0.082130 0.113701
vt 0.522816 0.319799
vt 0.512717 0.409705
vt 0.458815 0.364508
vt 0.078626 0.694996
vt 0.021992 0.608470
vt 0.098083 0.581424
vt 0.583211 0.262363
vt 0.693091 0.286930
vt 0.568758 0.372111
vt 0.118984 0.670896
vt 0.475527 0.095346
vt 0.536394 0.148290
vt 0.417020 0.179229
vt 0.132539 0.887173
vt 0.382529 0.840170
vt 0.446674 0.788684
vt 0.400104 0.856636
vt 0.340223 0.646117
vt 0.268478 0.509497
vt 0.427756 0.532572
vt 0.284237 0.782124
vt 0.931570 0.286378
vt 0.941358 0.179453
vt 0.982578 0.271888
vt 0.337937 0.756877
vt 0.347259 0.809082
vt 0.843559 0.435240
vt 0.784049 0.304818
vt 0.899338 0.373754
vt 0.040536 0.690194
vt 0.227661 0.755877
vt 0.640033 0.502637
vt 0.791429 0.514970
vt 0.378387 0.699148
vt 0.400764 0.769504
vt 0.339378 0.726749
vt 0.283924 0.045327
vt 0.298649 0.129633
vt 0.199085 0.112460
vt 0.821689 0.253381
vt 0.331208 0.393633
vt 0.279280 0.421715
vt 0.319267 0.294518
vt 0.423020 0.984759
vt 0.544714 0.882674
vt 0.569284 0.970321
vt 0.092209 0.030933
vt 0.808005 0.186675
vt 0.782987 0.039507
vt 0.892751 0.065796
vt 0.766118 0.083383
vt 0.721907 0.178452
vt 0.653424 0.132825
vt 0.309167 0.681835
vt 0.275675 0.621783
vt 0.069004 0.499318
vt 0.154051 0.484524
vt 0.266903 0.689931
vt 0.223411 0.604075
vt 0.048118 0.874978
vt 0.920848 0.401355
vt 0.949901 0.387280
vt 0.454464 0.679775
vt 0.508137 0.497227
vt 0.568102 0.529429
vt 0.868186 0.310754
vt 0.763490 0.205444
vt 0.664120 0.198886
vt 0.051056 0.732315
vt 0.031734 0.869283
vt 0.411294 0.956712
vt 0.531136 0.793847
vt 0.189984 0.436832
vt 0.175538 0.560823
vt 0.964227 0.143430
vt 0.912464 0.027145
vt 0.982578 0.038548
vt 0.081813 0.725572
vt 0.121280 0.769356
vt 0.081654 0.951935
vt 0.236655 0.976166
vt 0.251570 0.880482
vt 0.779992 0.437746
vt 0.382662 0.639949
vt 0.279271 0.957543
vt 0.530364 0.218882
vt 0.453131 0.320893
vt 0.406585 0.205855
vt 0.582992 0.485237
vt 0.449178 0.381135
vt 0.375178 0.258728
vt 0.478768 0.534864
vt 0.553194 0.062553
vt 0.632676 0.026838
vt 0.307920 0.840286
vt 0.594191 0.100596
vt 0.013117 0.931185
vt 0.074781 0.904850
vt 0.632614 0.518140
vt 0.287842 0.372362
vt 0.141199 0.625068
vt 0.831587 0.494458
vt 0.904431 0.466803
vt 0.441760 0.044247
vt 0.165189 0.066458
vt 0.051091 0.166140
vt 0.018262 0.063741
vt 0.372982 0.127735
vn 0.3812 -0.0498 0.9231
vn 0.0998 -0.0503 0.9937
vn 0.1167 -0.0519 0.9918
vn 0.4166 -0.0253 0.9087
vn 0.0371 -0.0227 0.9991
vn 0.3732 -0.0406 0.9268
vn 0.0375 0.0390 0.9985
vn 0.6998 0.0232 0.7140
vn 0.4239 0.0363 0.9050
vn 0.6622 -0.0216 0.7490
vn 0.1810 0.0655 0.9813
vn 0.7877 0.0057 0.6160
vn 0.6981 0.0107 0.7159
vn 0.8098 -0.0267 0.5861
vn 0.7740 0.0817 0.6279
vn 0.4831 0.0582 0.8736
vn 0.6807 0.0997 0.7258
vn 0.4319 0.1517 0.8891
vn 0.4677 0.3475 0.8127
vn 0.6369 0.6454 0.4216
vn 0.2989 0.6401 0.7078
vn 0.2817 0.3478 0.8943
vn 0.2693 0.0101 0.9630
vn -0.0170 -0.7644 -0.6445
vn -0.2529 -0.6034 -0.7563
vn 0.0834 -0.9668 -0.2417
vn 0.7046 -0.0783 -0.7053
vn 0.8308 0.1490 -0.5363
vn 0.9663 -0.1229 0.2263
vn -0.0602 0.8774 0.4760
vn -0.4088 0.8888 -0.2071
vn -0.7483 0.4290 0.5060
vn -0.1990 0.0825 -0.9765
vn -0.5369 0.0830 -0.8396
vn 0.0576 0.0879 -0.9945
vn -0.1570 0.3127 0.9368
vn 0.7010 -0.0938 -0.7070
vn 0.2839 0.1544 -0.9463
vn 0.9226 0.3698 0.1097
vn 0.2911 0.2726 0.9170
vn -0.2492 -0.0954 0.9637
vn 0.2489 -0.1344 0.9592
vn 0.0291 -0.0223 0.9993
vn 0.0211 0.0310 0.9993
vn -0.7037 -0.2203 0.6755
vn -0.7444 0.0263 0.6672
vn 0.5090 -0.0296 0.8603
vn -0.3029 0.0910 -0.9487
vn -0.4495 0.0448 -0.8922
vn -0.9979 -0.0238 -0.0608
vn 0.2526 -0.2297 0.9399
vn 0.5792 -0.1247 0.8056
vn 0.2676 0.4489 -0.8526
vn -0.0767 0.0752 -0.9942
vn 0.0080 0.2444 -0.9696
vn -0.1608 0.9418 -0.2951
vn -0.0443 -0.0760 0.9961
vn -0.3033 0.8630 -0.4040
vn -0.3184 0.9476 -0.0256
vn 0.6408 -0.0862 0.7629
vn 0.6548 -0.2822 0.7011
vn 0.3979 -0.0816 0.9138
vn 0.4394 -0.4905 0.7526
vn 0.1548 -0.9425 0.2961
vn 0.0135 -0.9747 0.2232
vn 0.2779 -0.0812 -0.9572
vn -0.9687 -0.2467 0.0280
vn -0.9572 -0.2471 0.1506
vn -0.2230 -0.5460 -0.8075
vn 0.3694 -0.6760 0.6376
vn 0.6994 -0.6963 -0.1611
vn 0.1172 0.0907 -0.9890
vn 0.3583 0.2599 -0.8967
vn -0.4886 0.2739 -0.8284
vn -0.5491 -0.1242 -0.8265
vn -0.5801 0.2925 -0.7602
vn 0.5136 0.1569 0.8435
vn -0.2731 -0.1231 0.9541
vn -0.8551 0.3807 -0.3520
vn -0.9699 0.0138 0.2429
vn 0.4009 -0.1335 0.9064
vn -0.2951 -0.2137 0.9313
vn -0.0730 0.9748 0.2107
vn -0.5026 0.5030 -0.7032
vn 0.8382 0.4784 0.2618
vn 0.0573 0.9368 -0.3450
vn 0.3802 -0.0361 -0.9242
vn -0.3479 -0.1978 -0.9164
vn -0.6158 0.0028 -0.7879
vn 0.7854 0.2050 0.5841
vn 0.0705 -0.7302 0.6796
vn -0.7057 -0.0619 0.7058
vn -0.7709 -0.6264 0.1154
vn 0.0731 0.8080 0.5846
vn 0.3518 0.2433 0.9039
vn 0.1726 0.0708 0.9824
vn 0.0717 0.2827 -0.9565
vn 0.0918 -0.2380 0.9669
vn 0.9660 -0.0876 0.2434
vn 0.5640 0.2270 -0.7939
vn -0.0192 0.4117 -0.9111
vn -0.4200 -0.5917 0.6881
vn 0.2473 -0.4335 -0.8666
vn 0.2951 0.0222 0.9552
vn -0.2764 0.2807 -0.9191
vn 0.0815 0.5770 0.8127
vn -0.2921 0.2094 0.9332
g Rock27_low_Rock27_low_Default_OBJ.046
usemtl Default_OBJ.046
s 1
f 2/1/1 1/2/2 3/3/3
f 1/2/2 2/1/1 4/4/4
f 5/5/5 3/3/3 4/4/4
f 4/4/4 7/6/6 5/5/5
f 7/6/6 6/7/7 5/5/5
f 8/8/8 3/3/3 5/5/5
f 9/9/9 7/6/6 10/10/10
f 14/11/11 12/12/12 13/13/13
f 12/12/12 17/14/14 10/10/10
f 15/15/15 16/16/16 11/17/17
f 17/14/14 15/15/15 10/10/10
f 17/14/14 16/16/16 15/15/15
f 11/17/17 9/9/9 10/10/10
f 11/17/17 10/10/10 15/15/15
f 9/9/9 11/17/17 18/18/18
f 14/11/11 16/16/16 12/12/12
f 16/16/16 17/14/14 12/12/12
f 11/17/17 16/16/16 19/19/19
f 20/20/20 21/21/21 11/17/17
f 20/20/20 11/17/17 19/19/19
f 11/17/17 21/21/21 18/18/18
f 22/22/22 23/23/23 7/6/6
f 24/24/24 25/25/25 26/26/26
f 9/9/9 18/18/18 7/6/6
f 27/27/27 28/28/28 29/29/29
f 12/12/12 10/10/10 13/13/13
f 30/30/30 31/31/31 32/32/32
f 33/33/33 34/34/34 35/35/35
f 22/22/22 30/30/30 36/36/36
f 13/13/13 10/10/10 4/4/4
f 37/37/37 38/38/38 39/39/39
f 40/40/40 16/16/16 14/11/11
f 41/41/41 42/42/42 43/43/43
f 44/44/44 45/45/45 46/46/46
f 4/4/4 2/1/1 47/47/47
f 4/4/4 3/3/3 1/2/2
f 48/48/48 49/49/49 50/50/50
f 16/16/16 40/40/40 19/19/19
f 2/1/1 51/51/51 52/52/52
f 4/4/4 10/10/10 7/6/6
f 53/53/53 54/54/54 55/55/55
f 56/56/56 31/31/31 30/30/30
f 7/6/6 23/23/23 57/57/57
f 58/58/58 34/34/34 59/59/59
f 2/1/1 3/3/3 51/51/51
f 60/60/60 61/61/61 62/62/62
f 63/63/63 64/64/64 65/65/65
f 24/24/24 26/26/26 65/65/65
f 64/64/64 24/24/24 65/65/65
f 48/48/48 66/66/66 49/49/49
f 67/67/67 46/46/46 68/68/68
f 69/69/69 24/24/24 64/64/64
f 39/70/39 70/71/70 71/72/71
f 65/65/65 26/26/26 70/73/70
f 72/74/72 24/75/24 73/76/73
f 74/77/74 75/78/75 76/79/76
f 62/62/62 77/80/77 60/60/60
f 44/44/44 77/80/77 78/81/78
f 32/32/32 79/82/79 80/83/80
f 81/84/81 82/85/82 78/81/78
f 83/86/83 20/20/20 19/19/19
f 35/35/35 28/28/28 27/27/27
f 53/53/53 55/55/55 84/87/84
f 79/88/79 48/48/48 50/50/50
f 61/61/61 63/89/63 42/42/42
f 42/42/42 52/52/52 61/61/61
f 85/90/85 28/28/28 86/91/86
f 28/28/28 85/90/85 29/29/29
f 23/23/23 82/85/82 81/84/81
f 22/22/22 36/36/36 23/23/23
f 87/92/87 54/54/54 66/66/66
f 88/93/88 34/34/34 89/94/89
f 59/95/59 21/21/21 20/20/20
f 20/20/20 58/96/58 59/95/59
f 70/71/70 90/97/90 43/43/43
f 70/71/70 43/43/43 91/98/91
f 50/99/50 45/45/45 92/100/92
f 45/45/45 68/68/68 46/46/46
f 67/101/67 69/102/69 93/103/93
f 73/76/73 49/49/49 72/74/72
f 94/104/94 21/21/21 59/95/59
f 95/105/95 21/21/21 94/104/94
f 85/106/85 40/40/40 29/107/29
f 96/108/96 43/43/43 90/97/90
f 91/98/91 43/43/43 42/42/42
f 42/42/42 63/89/63 91/98/91
f 94/104/94 59/95/59 56/56/56
f 97/109/97 53/53/53 59/59/59
f 59/59/59 34/34/34 97/109/97
f 54/54/54 34/34/34 88/93/88
f 60/60/60 63/89/63 61/61/61
f 46/46/46 98/110/98 44/44/44
f 90/97/90 99/111/99 96/108/96
f 100/112/100 99/113/99 90/114/90
f 30/30/30 32/32/32 36/36/36
f 92/100/92 32/32/32 80/83/80
f 34/34/34 58/58/58 101/115/101
f 35/35/35 86/91/86 28/28/28
f 46/46/46 67/67/67 93/116/93
f 64/64/64 93/117/93 69/69/69
f 98/110/98 46/46/46 102/118/102
f 46/46/46 93/116/93 102/118/102
f 38/38/38 37/37/37 103/119/103
f 25/120/25 74/77/74 76/79/76
f 5/5/5 6/7/7 8/8/8
f 77/80/77 62/62/62 8/8/8
f 104/121/104 4/4/4 47/47/47
f 52/52/52 47/47/47 2/1/1
f 33/33/33 89/94/89 34/34/34
f 38/38/38 105/122/105 76/79/76
f 30/30/30 94/104/94 56/56/56
f 94/104/94 30/30/30 95/105/95
f 40/40/40 85/106/85 19/19/19
f 86/123/86 106/124/106 85/106/85
f 7/6/6 57/57/57 6/7/7
f 8/8/8 6/7/7 57/57/57
f 47/47/47 52/52/52 104/121/104
f 43/43/43 104/121/104 41/41/41
f 57/57/57 81/84/81 8/8/8
f 23/23/23 81/84/81 57/57/57
f 41/41/41 52/52/52 42/42/42
f 41/41/41 104/121/104 52/52/52
f 83/125/83 86/91/86 101/115/101
f 83/86/83 106/124/106 86/123/86
f 39/39/39 38/38/38 100/112/100
f 27/27/27 33/33/33 35/35/35
f 80/83/80 79/82/79 50/99/50
f 92/100/92 80/83/80 50/99/50
f 104/121/104 43/43/43 14/11/11
f 43/43/43 96/108/96 14/11/11
f 49/49/49 69/102/69 67/101/67
f 67/67/67 68/68/68 49/126/49
f 22/22/22 7/6/6 18/18/18
f 22/22/22 95/105/95 30/30/30
f 3/3/3 8/8/8 62/62/62
f 62/62/62 51/51/51 3/3/3
f 88/93/88 89/94/89 75/78/75
f 74/77/74 72/74/72 75/78/75
f 88/93/88 75/78/75 72/74/72
f 72/74/72 49/49/49 66/66/66
f 82/85/82 45/45/45 78/81/78
f 78/81/78 45/45/45 44/44/44
f 96/108/96 29/107/29 40/40/40
f 96/108/96 40/40/40 14/11/11
f 107/127/107 32/32/32 92/100/92
f 23/23/23 36/36/36 82/85/82
f 63/89/63 98/110/98 102/118/102
f 63/89/63 60/60/60 98/110/98
f 92/100/92 82/85/82 107/127/107
f 82/85/82 92/100/92 45/45/45
f 59/59/59 53/53/53 56/128/56
f 56/128/56 53/53/53 31/129/31
f 62/62/62 61/61/61 51/51/51
f 52/52/52 51/51/51 61/61/61
f 60/60/60 44/44/44 98/110/98
f 77/80/77 44/44/44 60/60/60
f 76/79/76 33/33/33 38/38/38
f 33/33/33 100/112/100 38/38/38
f 31/129/31 53/53/53 84/87/84
f 32/32/32 31/31/31 79/82/79
f 103/119/103 37/37/37 71/130/71
f 71/130/71 37/37/37 39/39/39
f 72/74/72 66/66/66 88/93/88
f 88/93/88 66/66/66 54/54/54
f 32/32/32 107/127/107 36/36/36
f 82/85/82 36/36/36 107/127/107
f 97/109/97 54/54/54 53/53/53
f 97/109/97 34/34/34 54/54/54
f 39/70/39 90/97/90 70/71/70
f 39/39/39 100/112/100 90/114/90
f 24/75/24 69/102/69 73/76/73
f 69/102/69 49/49/49 73/76/73
f 91/131/91 63/63/63 65/65/65
f 65/65/65 70/73/70 91/131/91
f 79/88/79 55/55/55 48/48/48
f 55/55/55 54/54/54 87/92/87
f 29/107/29 96/108/96 99/111/99
f 29/29/29 99/113/99 27/27/27
f 75/78/75 89/94/89 76/79/76
f 89/94/89 33/33/33 76/79/76
f 76/79/76 105/122/105 25/120/25
f 105/122/105 38/38/38 103/119/103
f 103/132/103 26/26/26 25/25/25
f 25/120/25 105/122/105 103/119/103
f 101/115/101 35/35/35 34/34/34
f 86/91/86 35/35/35 101/115/101
f 77/80/77 81/84/81 78/81/78
f 8/8/8 81/84/81 77/80/77
f 48/48/48 87/92/87 66/66/66
f 55/55/55 87/92/87 48/48/48
f 26/26/26 71/133/71 70/73/70
f 26/26/26 103/132/103 71/133/71
f 21/21/21 95/105/95 18/18/18
f 95/105/95 22/22/22 18/18/18
f 13/13/13 4/4/4 104/121/104
f 13/13/13 104/121/104 14/11/11
f 102/134/102 64/64/64 63/63/63
f 102/134/102 93/117/93 64/64/64
f 99/113/99 100/112/100 27/27/27
f 33/33/33 27/27/27 100/112/100
f 24/75/24 72/74/72 74/77/74
f 74/77/74 25/120/25 24/75/24
f 106/124/106 83/86/83 19/19/19
f 85/106/85 106/124/106 19/19/19
f 55/55/55 79/88/79 84/87/84
f 79/88/79 31/129/31 84/87/84
f 83/86/83 58/96/58 20/20/20
f 101/115/101 58/58/58 83/125/83
f 50/99/50 49/126/49 68/68/68
f 45/45/45 50/99/50 68/68/68
