# Blender v2.90.1 OBJ File: ''
# www.blender.org
mtllib WoodenSign01.mtl
o WoodenSign
v 0.334565 -0.095778 0.021825
v 0.334565 -0.095778 -0.000000
v 0.482669 -0.015424 -0.000000
v 0.482669 -0.015424 0.021825
v 0.482669 0.014697 0.021825
v 0.482669 0.014697 0.000000
v 0.334565 0.095047 0.000000
v 0.334565 0.095047 0.021825
v -0.559423 0.095047 0.000000
v -0.559423 0.095047 0.021825
v -0.564023 -0.093223 0.021825
v -0.564023 -0.093223 -0.000000
v -0.511023 -0.000364 0.021825
v -0.511023 -0.000364 -0.000000
v 0.334565 -0.095778 -0.021825
v 0.482669 -0.015424 -0.021825
v 0.482669 0.014697 -0.021825
v 0.334565 0.095047 -0.021825
v -0.559423 0.095047 -0.021825
v -0.564023 -0.093223 -0.021825
v -0.511023 -0.000364 -0.021825
vt 0.551790 0.855650
vt 0.554927 0.843205
vt 0.644313 0.884590
vt 0.638469 0.896959
vt 0.639165 0.915775
vt 0.643804 0.927808
vt 0.550905 0.963624
vt 0.548443 0.950852
vt 0.022484 0.963624
vt 0.022499 0.949648
vt 0.022276 0.821996
vt 0.023105 0.809080
vt 0.040181 0.886397
vt 0.652102 0.896454
vt 0.652799 0.915270
vt 0.011678 0.946811
vt 0.026277 0.886652
vt 0.009766 0.825367
vt 0.551790 0.855650
vt 0.638469 0.896959
vt 0.639165 0.915775
vt 0.548443 0.950852
vt 0.022499 0.949648
vt 0.022276 0.821996
vt 0.040181 0.886397
vn 0.1702 -0.6747 0.7182
vn 0.2446 -0.9696 0.0000
vn 0.8593 -0.5114 0.0000
vn 0.7428 -0.4420 0.5029
vn 0.7427 0.4421 0.5029
vn 0.8593 0.5114 0.0000
vn 0.2460 0.9693 0.0000
vn 0.1417 0.5585 0.8173
vn -0.8522 0.5233 0.0000
vn -0.6927 0.4253 0.5825
vn -0.6140 -0.3553 0.7048
vn -0.8655 -0.5009 0.0000
vn -0.7091 0.0175 0.7049
vn -0.9997 0.0246 0.0000
vn 0.1702 -0.6747 -0.7182
vn 0.7427 -0.4420 -0.5029
vn 0.7428 0.4420 -0.5029
vn 0.1418 0.5585 -0.8173
vn -0.6927 0.4254 -0.5825
vn -0.6140 -0.3553 -0.7048
vn -0.7091 0.0175 -0.7049
g WoodenSign_WoodenSign_WoodenSign.001
usemtl WoodenSign.001
s 1
f 1/1/1 2/2/2 3/3/3
f 3/3/3 4/4/4 1/1/1
f 5/5/5 6/6/6 7/7/7
f 7/7/7 8/8/8 5/5/5
f 8/8/8 7/7/7 9/9/9
f 9/9/9 10/10/10 8/8/8
f 11/11/11 12/12/12 2/2/2
f 2/2/2 1/1/1 11/11/11
f 8/8/8 10/10/10 13/13/13
f 11/11/11 1/1/1 8/8/8
f 8/8/8 13/13/13 11/11/11
f 1/1/1 4/4/4 5/5/5
f 5/5/5 8/8/8 1/1/1
f 4/4/4 3/14/3 6/15/6
f 6/15/6 5/5/5 4/4/4
f 13/13/13 10/10/10 9/16/9
f 9/16/9 14/17/14 13/13/13
f 11/11/11 13/13/13 14/17/14
f 14/17/14 12/18/12 11/11/11
f 3/3/3 2/2/2 15/19/15
f 15/19/15 16/20/16 3/3/3
f 7/7/7 6/6/6 17/21/17
f 17/21/17 18/22/18 7/7/7
f 9/9/9 7/7/7 18/22/18
f 18/22/18 19/23/19 9/9/9
f 2/2/2 12/12/12 20/24/20
f 20/24/20 15/19/15 2/2/2
f 18/22/18 21/25/21 19/23/19
f 18/22/18 15/19/15 20/24/20
f 20/24/20 21/25/21 18/22/18
f 17/21/17 16/20/16 15/19/15
f 15/19/15 18/22/18 17/21/17
f 6/15/6 3/14/3 16/20/16
f 16/20/16 17/21/17 6/15/6
f 9/16/9 19/23/19 21/25/21
f 21/25/21 14/17/14 9/16/9
f 14/17/14 21/25/21 20/24/20
f 20/24/20 12/18/12 14/17/14
