# Blender v2.80 (sub 74) OBJ File: ''
# www.blender.org
mtllib Cactus06.mtl
o Cactus06
v -0.742428 1.524099 0.106954
v -0.676012 1.381708 0.233189
v -0.684128 1.528345 0.128842
v -0.704353 1.550181 0.076229
v -0.677966 1.551443 0.073865
v -0.707968 1.551069 0.063077
v -0.773336 1.523843 0.050527
v -0.813829 1.381855 0.181240
v -0.622818 1.526313 0.106679
v -0.495751 0.333629 0.249986
v -0.645212 0.343161 0.270203
v -0.610633 0.228797 0.331139
v -0.605799 1.527997 0.054729
v -0.565242 1.364229 -0.077221
v -0.637096 1.524904 -0.003184
v -0.696949 1.524190 -0.024724
v -0.690690 1.552167 0.034784
v -0.670832 1.552505 0.051927
v -0.675106 1.552341 0.039971
v -0.706706 1.366773 -0.128298
v -0.757601 1.522588 0.000448
v -0.469342 0.321115 0.259643
v -0.789643 0.211256 -0.024533
v -0.677157 0.216835 -0.098357
v -0.784085 0.108817 -0.035068
v -0.482671 0.348430 0.120959
v -0.462996 0.329523 0.110877
v -0.797640 0.167435 0.254764
v -0.823941 0.038159 0.097606
v -0.768890 0.054366 0.248850
v -0.864811 0.167328 0.095520
v -0.661486 0.289084 -0.069422
v -0.511907 0.313806 -0.022281
v -0.780805 0.323212 0.002604
v -0.668523 0.345541 -0.036109
v -0.540193 0.333523 -0.011279
v -0.603802 0.144198 0.343749
v -0.494812 0.367127 0.110515
v -0.530868 0.363835 0.234031
v -0.546377 0.365427 -0.001279
v -0.415856 0.534385 0.084241
v -0.490797 0.545109 0.277511
v -0.457989 0.715841 0.277290
v -0.667681 0.700305 0.350833
v -0.666666 0.538133 0.324361
v -0.890194 0.693202 0.261533
v -0.861055 0.519184 0.245955
v -0.784183 0.311369 0.217020
v -0.841683 0.309192 0.109507
v -0.941435 0.501172 0.092706
v -0.871006 0.498599 -0.068711
v -0.986784 0.683973 0.078858
v -0.900749 0.669900 -0.112608
v -0.673207 0.500748 -0.132935
v -0.674663 0.668129 -0.193227
v -0.491132 0.516929 -0.075300
v -0.504223 0.866974 -0.144595
v -0.485520 0.689403 -0.129688
v -0.396063 0.712237 0.056525
v -0.406035 0.877599 0.059390
v -0.516029 1.037367 -0.132088
v -0.418274 1.040415 0.062560
v -0.475904 0.883556 0.281217
v -0.677189 1.054802 0.343304
v -0.673487 0.873242 0.363188
v -0.875776 1.043344 0.264451
v -0.883309 0.866177 0.274682
v -0.972258 1.034091 0.070889
v -0.987184 0.863596 0.073980
v -0.907958 1.027292 -0.125383
v -0.908012 0.846482 -0.131492
v -0.720433 1.031501 -0.207476
v -0.701741 0.848212 -0.216301
v -0.726067 1.203424 -0.173772
v -0.529142 1.202546 -0.104427
v -0.490516 1.374560 0.060201
v -0.443160 1.207360 0.063979
v -0.530232 1.384069 0.181091
v -0.500035 1.217088 0.227195
v -0.670757 1.223182 0.295197
v -0.486739 1.051333 0.263469
v -0.861757 1.218085 0.223806
v -0.887755 1.386678 0.047459
v -0.945655 1.208650 0.060085
v -0.892838 1.206261 -0.098002
v -0.850716 1.380528 -0.069600
v -0.702971 1.551948 0.043570
v -0.689557 1.550437 0.081934
v -0.299711 0.264981 0.247808
v -0.309121 0.268950 0.105320
v -0.509263 -0.129080 0.254725
v -0.363385 0.056424 0.355027
v -0.560363 -0.184572 0.101683
v -0.454730 0.095659 -0.140226
v -0.524436 -0.068167 -0.091288
v -0.347024 0.231958 -0.022431
v -0.315856 -0.247934 0.048540
v -0.126021 -0.019735 0.273837
v -0.078331 0.163334 0.154756
v -0.280198 -0.140016 -0.124409
v -0.218402 0.019091 -0.186201
v -0.263093 -0.209036 0.201795
v -0.081773 0.202255 0.051113
v -0.111711 0.191984 -0.080587
v 0.003981 0.084461 0.056282
v 0.000398 0.102935 0.008676
v -0.057556 -0.116358 -0.006511
v -0.040223 -0.096860 0.066649
v -0.009682 0.097402 -0.053594
v -0.002559 -0.003713 0.107297
v -0.050411 -0.064351 -0.084285
v -0.034924 0.012225 -0.109336
v 0.004802 0.011385 -0.017171
v -0.000443 -0.001450 -0.025246
v 0.000355 -0.018607 0.001408
v 0.005427 -0.004155 0.007774
v 0.007564 0.009285 -0.000319
v 0.006960 0.012093 -0.007663
v -0.002559 -0.021578 -0.009821
v -0.002839 -0.013261 -0.021562
vt 0.272897 0.121706
vt 0.197307 0.186585
vt 0.197307 0.121706
vt 0.684268 0.639893
vt 0.704054 0.648401
vt 0.678165 0.649173
vt 0.343426 0.121706
vt 0.272897 0.186585
vt 0.124066 0.121706
vt 0.124066 0.630575
vt 0.197307 0.563271
vt 0.197307 0.630575
vt 0.624472 0.121706
vt 0.551512 0.186585
vt 0.551512 0.121706
vt 0.481126 0.121706
vt 0.684391 0.675397
vt 0.704054 0.667166
vt 0.697736 0.675321
vt 0.481126 0.186585
vt 0.410557 0.121706
vt 0.124066 0.693275
vt 0.410557 0.630575
vt 0.481126 0.693275
vt 0.410557 0.693275
vt 0.048464 0.630575
vt 0.048464 0.693275
vt 0.272897 0.630575
vt 0.343426 0.693275
vt 0.272897 0.693275
vt 0.343426 0.630575
vt 0.481126 0.630575
vt 0.551512 0.693275
vt 0.410557 0.563271
vt 0.481126 0.563271
vt 0.551512 0.630575
vt 0.197307 0.693275
vt 0.624472 0.563271
vt 0.624472 0.630575
vt 0.624472 0.693275
vt 0.124066 0.563271
vt 0.551512 0.563271
vt 0.624472 0.499009
vt 0.048464 0.563271
vt 0.124066 0.499009
vt 0.048464 0.499009
vt 0.124066 0.434394
vt 0.197307 0.434394
vt 0.197307 0.499009
vt 0.272897 0.434394
vt 0.272897 0.499009
vt 0.272897 0.563271
vt 0.343426 0.563271
vt 0.343426 0.499009
vt 0.410557 0.499009
vt 0.343426 0.434394
vt 0.410557 0.434394
vt 0.481126 0.499009
vt 0.481126 0.434394
vt 0.551512 0.499009
vt 0.551512 0.373681
vt 0.551512 0.434394
vt 0.624472 0.434394
vt 0.624472 0.373681
vt 0.551512 0.313970
vt 0.624472 0.313970
vt 0.048464 0.313970
vt 0.124066 0.373681
vt 0.048464 0.373681
vt 0.048464 0.434394
vt 0.197307 0.313970
vt 0.197307 0.373681
vt 0.272897 0.313970
vt 0.272897 0.373681
vt 0.343426 0.313970
vt 0.343426 0.373681
vt 0.410557 0.313970
vt 0.410557 0.373681
vt 0.481126 0.313970
vt 0.481126 0.373681
vt 0.481126 0.248813
vt 0.551512 0.248813
vt 0.624472 0.186585
vt 0.624472 0.248813
vt 0.048464 0.248813
vt 0.124066 0.186585
vt 0.124066 0.248813
vt 0.197307 0.248813
vt 0.124066 0.313970
vt 0.272897 0.248813
vt 0.343426 0.186585
vt 0.343426 0.248813
vt 0.410557 0.248813
vt 0.410557 0.186585
vt 0.410557 0.052485
vt 0.677114 0.665513
vt 0.048464 0.121706
vt 0.124066 0.052485
vt 0.048464 0.186585
vt 0.481126 0.052485
vt 0.551512 0.052485
vt 0.197307 0.052485
vt 0.343426 0.052485
vt 0.272897 0.052485
vt 0.124066 0.756003
vt 0.048464 0.756003
vt 0.272897 0.756003
vt 0.197307 0.756003
vt 0.343426 0.756003
vt 0.481126 0.756003
vt 0.410557 0.756003
vt 0.551512 0.756003
vt 0.343426 0.822045
vt 0.197307 0.822045
vt 0.124066 0.822045
vt 0.410557 0.822045
vt 0.481126 0.822045
vt 0.272897 0.822045
vt 0.048464 0.822045
vt 0.624472 0.822045
vt 0.551512 0.822045
vt 0.124066 0.891137
vt 0.048464 0.891137
vt 0.343426 0.891137
vt 0.272897 0.891137
vt 0.551512 0.891137
vt 0.197307 0.891137
vt 0.410557 0.891137
vt 0.481126 0.891137
vt 0.551512 0.960753
vt 0.481126 0.960753
vt 0.272897 0.960753
vt 0.197307 0.960753
vt 0.124066 0.960753
vt 0.048464 0.960753
vt 0.343426 0.960753
vt 0.624472 0.891137
vt 0.410557 0.960753
vt 0.721736 0.735596
vt 0.708445 0.701118
vt 0.721736 0.712941
vt 0.710904 0.744142
vt 0.688150 0.700194
vt 0.680239 0.736064
vt 0.700017 0.746470
vt 0.697133 0.639221
vt 0.048464 0.052485
vt 0.624472 0.052485
vt 0.624472 0.756003
vt 0.624472 0.960753
vt 0.676969 0.712876
vn -0.3714 0.7865 0.4935
vn 0.0839 0.5773 0.8122
vn -0.0143 0.8431 0.5375
vn -0.1700 0.9266 0.3353
vn 0.1375 0.9603 0.2428
vn -0.2327 0.9631 0.1351
vn -0.5687 0.8144 0.1159
vn -0.5363 0.5517 0.6387
vn 0.4596 0.7741 0.4353
vn 0.3381 0.6233 0.7051
vn -0.0973 0.1474 0.9843
vn -0.1585 0.3028 0.9398
vn 0.5339 0.8364 -0.1238
vn 0.5399 0.5489 -0.6381
vn 0.3459 0.8113 -0.4713
vn 0.0681 0.7408 -0.6683
vn 0.0016 0.9401 -0.3409
vn 0.1274 0.9909 -0.0428
vn 0.2868 0.9293 -0.2328
vn 0.0161 0.5010 -0.8653
vn -0.4269 0.7970 -0.4272
vn 0.3128 0.6691 0.6741
vn -0.7289 0.0565 -0.6823
vn -0.2988 0.1612 -0.9406
vn -0.7290 -0.2228 -0.6472
vn 0.6981 0.7084 0.1042
vn 0.4678 0.8700 -0.1557
vn -0.7218 -0.1075 0.6837
vn -0.8531 -0.5182 -0.0609
vn -0.6250 -0.5059 0.5945
vn -0.9908 -0.1332 -0.0224
vn -0.1472 0.3465 -0.9264
vn 0.2011 0.6348 -0.7461
vn -0.6938 -0.1034 -0.7127
vn -0.0462 -0.0202 -0.9987
vn 0.5169 0.5271 -0.6745
vn -0.2294 -0.0304 0.9729
vn 0.9884 0.1437 -0.0492
vn 0.6150 0.2808 0.7368
vn 0.6640 -0.1133 -0.7391
vn 0.9778 -0.2064 -0.0351
vn 0.6852 -0.1323 0.7162
vn 0.8361 -0.0721 0.5439
vn 0.0698 -0.0878 0.9937
vn -0.0376 -0.1206 0.9920
vn -0.7271 -0.1463 0.6708
vn -0.6704 -0.1925 0.7166
vn -0.7045 -0.0226 0.7093
vn -0.9886 -0.1504 0.0076
vn -0.9556 -0.2933 0.0294
vn -0.6589 -0.3238 -0.6790
vn -0.9718 -0.1862 -0.1449
vn -0.5465 -0.2385 -0.8028
vn 0.0053 -0.3352 -0.9421
vn 0.1673 -0.2231 -0.9603
vn 0.6639 -0.2936 -0.6877
vn 0.6656 -0.0056 -0.7463
vn 0.6689 -0.1491 -0.7282
vn 0.9665 -0.0956 -0.2383
vn 0.9950 0.0709 -0.0707
vn 0.5991 0.1347 -0.7893
vn 0.9855 0.1690 0.0159
vn 0.6662 0.0790 0.7415
vn 0.0168 0.1990 0.9798
vn -0.0972 0.0558 0.9937
vn -0.5941 0.1473 0.7908
vn -0.6783 0.0228 0.7344
vn -0.9779 0.1589 0.1357
vn -0.9987 0.0106 0.0496
vn -0.7320 0.1245 -0.6698
vn -0.7170 -0.0290 -0.6965
vn -0.1405 0.1019 -0.9848
vn -0.0175 -0.0347 -0.9992
vn -0.1105 0.2589 -0.9596
vn 0.6900 0.2778 -0.6684
vn 0.8455 0.5237 -0.1041
vn 0.9563 0.2911 0.0274
vn 0.7056 0.5019 0.5002
vn 0.7041 0.3135 0.6371
vn 0.0317 0.3420 0.9391
vn 0.6399 0.2051 0.7406
vn -0.6922 0.3124 0.6506
vn -0.8453 0.5343 -0.0033
vn -0.9581 0.2804 0.0591
vn -0.8171 0.2766 -0.5059
vn -0.5577 0.4873 -0.6720
vn -0.2437 0.9622 -0.1217
vn -0.0238 0.9309 0.3646
vn 0.4838 0.6750 0.5571
vn 0.4536 0.8912 -0.0025
vn -0.2215 -0.7065 0.6721
vn 0.1966 -0.0495 0.9792
vn -0.5092 -0.8598 0.0368
vn -0.0328 0.1468 -0.9886
vn -0.4074 -0.5479 -0.7307
vn 0.2918 0.7568 -0.5849
vn -0.0245 -0.9896 -0.1415
vn 0.6479 -0.1213 0.7520
vn 0.7287 0.5368 0.4253
vn 0.1212 -0.5960 -0.7938
vn 0.2669 0.0785 -0.9605
vn 0.3359 -0.7808 0.5269
vn 0.6496 0.7532 -0.1038
vn 0.4855 0.5926 -0.6427
vn 0.9463 0.2688 0.1795
vn 0.9484 0.3007 -0.1002
vn 0.5499 -0.8096 -0.2053
vn 0.7852 -0.5739 0.2328
vn 0.8115 0.4179 -0.4084
vn 0.9283 -0.1276 0.3492
vn 0.6204 -0.4695 -0.6283
vn 0.7469 -0.0262 -0.6644
vn 0.9456 -0.0442 -0.3222
vn 0.8893 -0.1844 -0.4185
vn 0.9385 -0.3448 0.0159
vn 0.9893 -0.1358 0.0533
vn 0.9991 0.0423 -0.0088
vn 0.9872 -0.0928 -0.1300
vn 0.8793 -0.4293 -0.2060
vn 0.8663 -0.2970 -0.4018
usemtl None.021
s 1
f 1/1/1 2/2/2 3/3/3
f 4/4/4 5/5/5 6/6/6
f 7/7/7 8/8/8 1/1/1
f 2/2/2 9/9/9 3/3/3
f 10/10/10 11/11/11 12/12/12
f 13/13/13 14/14/14 15/15/15
f 14/14/14 16/16/16 15/15/15
f 17/17/17 18/18/18 19/19/19
f 20/20/20 21/21/21 16/16/16
f 12/12/12 22/22/22 10/10/10
f 23/23/23 24/24/24 25/25/25
f 26/26/26 22/22/22 27/27/27
f 28/28/28 29/29/29 30/30/30
f 31/31/31 25/25/25 29/29/29
f 32/32/32 33/33/33 24/24/24
f 32/32/32 34/34/34 35/35/35
f 35/35/35 36/36/36 32/32/32
f 28/28/28 37/37/37 12/12/12
f 36/36/36 38/38/38 26/39/26
f 36/36/36 27/40/27 33/33/33
f 26/26/26 39/41/39 10/10/10
f 40/42/40 41/43/41 38/38/38
f 38/44/38 42/45/42 39/41/39
f 41/46/41 43/47/43 42/45/42
f 42/45/42 44/48/44 45/49/45
f 45/49/45 39/41/39 42/45/42
f 45/49/45 46/50/46 47/51/47
f 47/51/47 11/11/11 45/49/45
f 48/52/48 12/12/12 11/11/11
f 47/51/47 49/53/49 48/52/48
f 48/52/48 31/31/31 28/28/28
f 50/54/50 34/34/34 49/53/49
f 49/53/49 23/23/23 31/31/31
f 51/55/51 52/56/52 53/57/53
f 53/57/53 54/58/54 51/55/51
f 51/55/51 35/35/35 34/34/34
f 55/59/55 56/60/56 54/58/54
f 54/58/54 40/42/40 35/35/35
f 55/59/55 57/61/57 58/62/58
f 57/61/57 59/63/59 58/62/58
f 59/63/59 56/60/56 58/62/58
f 60/64/60 61/65/61 62/66/62
f 62/67/62 63/68/63 60/69/60
f 60/69/60 43/47/43 59/70/59
f 63/68/63 64/71/64 65/72/65
f 63/68/63 44/48/44 43/47/43
f 65/72/65 66/73/66 67/74/67
f 67/74/67 44/48/44 65/72/65
f 67/74/67 68/75/68 69/76/69
f 69/76/69 46/50/46 67/74/67
f 69/76/69 70/77/70 71/78/71
f 71/78/71 52/56/52 69/76/69
f 71/78/71 72/79/72 73/80/73
f 73/80/73 53/57/53 71/78/71
f 70/77/70 74/81/74 72/79/72
f 74/81/74 61/65/61 72/79/72
f 61/65/61 73/80/73 72/79/72
f 75/82/75 20/20/20 14/14/14
f 75/82/75 76/83/76 77/84/77
f 75/82/75 62/66/62 61/65/61
f 77/85/77 78/86/78 79/87/79
f 79/87/79 62/67/62 77/85/77
f 79/87/79 2/2/2 80/88/80
f 80/88/80 81/89/81 79/87/79
f 80/88/80 8/8/8 82/90/82
f 82/90/82 64/71/64 80/88/80
f 82/90/82 83/91/83 84/92/84
f 82/90/82 68/75/68 66/73/66
f 83/91/83 85/93/85 84/92/84
f 85/93/85 68/75/68 84/92/84
f 74/81/74 86/94/86 20/20/20
f 50/54/50 46/50/46 52/56/52
f 7/7/7 87/95/87 21/21/21
f 6/6/6 18/18/18 87/96/87
f 13/97/13 5/98/5 9/9/9
f 76/99/76 9/9/9 78/86/78
f 83/91/83 21/21/21 86/94/86
f 17/100/17 21/21/21 87/95/87
f 15/15/15 17/100/17 19/101/19
f 19/101/19 13/13/13 15/15/15
f 3/3/3 5/98/5 88/102/88
f 6/103/6 1/1/1 4/104/4
f 4/104/4 3/3/3 88/102/88
f 27/27/27 89/105/89 90/106/90
f 37/37/37 91/107/91 92/108/92
f 22/22/22 92/108/92 89/105/89
f 30/30/30 93/109/93 91/107/91
f 33/33/33 94/110/94 24/24/24
f 29/29/29 95/111/95 93/109/93
f 24/24/24 95/111/95 25/25/25
f 27/40/27 96/112/96 33/33/33
f 95/111/95 97/113/97 93/109/93
f 89/105/89 98/114/98 99/115/99
f 94/110/94 100/116/100 95/111/95
f 96/112/96 101/117/101 94/110/94
f 92/108/92 102/118/102 98/114/98
f 90/106/90 99/115/99 103/119/103
f 91/107/91 97/113/97 102/118/102
f 96/112/96 103/120/103 104/121/104
f 103/119/103 105/122/105 106/123/106
f 102/118/102 107/124/107 108/125/108
f 103/120/103 109/126/109 104/121/104
f 100/116/100 107/124/107 97/113/97
f 99/115/99 110/127/110 105/122/105
f 101/117/101 111/128/111 100/116/100
f 104/121/104 112/129/112 101/117/101
f 98/114/98 108/125/108 110/127/110
f 112/129/112 113/130/113 114/131/114
f 110/127/110 115/132/115 116/133/116
f 106/123/106 117/134/117 118/135/118
f 108/125/108 119/136/119 115/132/115
f 106/137/106 113/130/113 109/126/109
f 111/128/111 119/136/119 107/124/107
f 105/122/105 116/133/116 117/134/117
f 112/129/112 120/138/120 111/128/111
f 113/139/113 120/140/120 114/141/114
f 118/142/118 119/143/119 113/139/113
f 116/144/116 118/142/118 117/145/117
f 1/1/1 8/8/8 2/2/2
f 4/4/4 88/146/88 5/5/5
f 7/7/7 83/91/83 8/8/8
f 2/2/2 78/86/78 9/9/9
f 10/10/10 39/41/39 11/11/11
f 13/13/13 76/83/76 14/14/14
f 14/14/14 20/20/20 16/16/16
f 17/17/17 87/96/87 18/18/18
f 20/20/20 86/94/86 21/21/21
f 12/12/12 37/37/37 22/22/22
f 23/23/23 32/32/32 24/24/24
f 26/26/26 10/10/10 22/22/22
f 28/28/28 31/31/31 29/29/29
f 31/31/31 23/23/23 25/25/25
f 32/32/32 36/36/36 33/33/33
f 32/32/32 23/23/23 34/34/34
f 35/35/35 40/42/40 36/36/36
f 28/28/28 30/30/30 37/37/37
f 36/36/36 40/42/40 38/38/38
f 36/36/36 26/39/26 27/40/27
f 26/26/26 38/44/38 39/41/39
f 40/42/40 56/60/56 41/43/41
f 38/44/38 41/46/41 42/45/42
f 41/46/41 59/70/59 43/47/43
f 42/45/42 43/47/43 44/48/44
f 45/49/45 11/11/11 39/41/39
f 45/49/45 44/48/44 46/50/46
f 47/51/47 48/52/48 11/11/11
f 48/52/48 28/28/28 12/12/12
f 47/51/47 50/54/50 49/53/49
f 48/52/48 49/53/49 31/31/31
f 50/54/50 51/55/51 34/34/34
f 49/53/49 34/34/34 23/23/23
f 51/55/51 50/54/50 52/56/52
f 53/57/53 55/59/55 54/58/54
f 51/55/51 54/58/54 35/35/35
f 55/59/55 58/62/58 56/60/56
f 54/58/54 56/60/56 40/42/40
f 55/59/55 73/80/73 57/61/57
f 57/61/57 60/64/60 59/63/59
f 59/63/59 41/43/41 56/60/56
f 60/64/60 57/61/57 61/65/61
f 62/67/62 81/89/81 63/68/63
f 60/69/60 63/68/63 43/47/43
f 63/68/63 81/89/81 64/71/64
f 63/68/63 65/72/65 44/48/44
f 65/72/65 64/71/64 66/73/66
f 67/74/67 46/50/46 44/48/44
f 67/74/67 66/73/66 68/75/68
f 69/76/69 52/56/52 46/50/46
f 69/76/69 68/75/68 70/77/70
f 71/78/71 53/57/53 52/56/52
f 71/78/71 70/77/70 72/79/72
f 73/80/73 55/59/55 53/57/53
f 70/77/70 85/93/85 74/81/74
f 74/81/74 75/82/75 61/65/61
f 61/65/61 57/61/57 73/80/73
f 75/82/75 74/81/74 20/20/20
f 75/82/75 14/14/14 76/83/76
f 75/82/75 77/84/77 62/66/62
f 77/85/77 76/99/76 78/86/78
f 79/87/79 81/89/81 62/67/62
f 79/87/79 78/86/78 2/2/2
f 80/88/80 64/71/64 81/89/81
f 80/88/80 2/2/2 8/8/8
f 82/90/82 66/73/66 64/71/64
f 82/90/82 8/8/8 83/91/83
f 82/90/82 84/92/84 68/75/68
f 83/91/83 86/94/86 85/93/85
f 85/93/85 70/77/70 68/75/68
f 74/81/74 85/93/85 86/94/86
f 50/54/50 47/51/47 46/50/46
f 7/7/7 6/103/6 87/95/87
f 6/6/6 5/5/5 18/18/18
f 13/97/13 18/147/18 5/98/5
f 76/99/76 13/97/13 9/9/9
f 83/91/83 7/7/7 21/21/21
f 17/100/17 16/16/16 21/21/21
f 15/15/15 16/16/16 17/100/17
f 19/101/19 18/148/18 13/13/13
f 3/3/3 9/9/9 5/98/5
f 6/103/6 7/7/7 1/1/1
f 4/104/4 1/1/1 3/3/3
f 27/27/27 22/22/22 89/105/89
f 37/37/37 30/30/30 91/107/91
f 22/22/22 37/37/37 92/108/92
f 30/30/30 29/29/29 93/109/93
f 33/33/33 96/112/96 94/110/94
f 29/29/29 25/25/25 95/111/95
f 24/24/24 94/110/94 95/111/95
f 27/40/27 90/149/90 96/112/96
f 95/111/95 100/116/100 97/113/97
f 89/105/89 92/108/92 98/114/98
f 94/110/94 101/117/101 100/116/100
f 96/112/96 104/121/104 101/117/101
f 92/108/92 91/107/91 102/118/102
f 90/106/90 89/105/89 99/115/99
f 91/107/91 93/109/93 97/113/97
f 96/112/96 90/149/90 103/120/103
f 103/119/103 99/115/99 105/122/105
f 102/118/102 97/113/97 107/124/107
f 103/120/103 106/137/106 109/126/109
f 100/116/100 111/128/111 107/124/107
f 99/115/99 98/114/98 110/127/110
f 101/117/101 112/129/112 111/128/111
f 104/121/104 109/126/109 112/129/112
f 98/114/98 102/118/102 108/125/108
f 112/129/112 109/126/109 113/130/113
f 110/127/110 108/125/108 115/132/115
f 106/123/106 105/122/105 117/134/117
f 108/125/108 107/124/107 119/136/119
f 106/137/106 118/150/118 113/130/113
f 111/128/111 120/138/120 119/136/119
f 105/122/105 110/127/110 116/133/116
f 112/129/112 114/131/114 120/138/120
f 113/139/113 119/143/119 120/140/120
f 118/142/118 115/151/115 119/143/119
f 116/144/116 115/151/115 118/142/118
