# Blender v2.90.1 OBJ File: 'StylizedRockProject.blend'
# www.blender.org
mtllib Rock07_low.mtl
o Rock07_low
v 0.023868 0.155133 0.475894
v 0.422486 0.172431 0.403701
v 0.144081 0.225376 0.413067
v 0.272947 0.280406 -0.134875
v 0.311519 0.334069 0.042249
v 0.503734 0.181863 0.071722
v -0.150515 0.190435 0.402806
v -0.130865 0.370304 0.174562
v -0.371632 0.160728 0.308052
v 0.177963 0.014799 0.285407
v -0.136726 -0.002695 0.433865
v -0.191285 -0.009417 -0.115970
v -0.378184 0.233978 -0.020031
v 0.024056 0.363354 -0.052134
v -0.161974 0.289345 -0.146240
v 0.266880 -0.000930 -0.160859
v -0.329011 0.051023 -0.117423
v -0.446613 0.030219 0.141276
v -0.450639 0.159473 0.133701
v -0.262632 0.009544 0.414613
v -0.115466 0.082210 0.490932
v 0.096786 0.000748 0.470037
v -0.105628 0.213022 -0.238277
v 0.312631 0.176699 -0.231486
v 0.455494 -0.003799 0.105751
v 0.370735 -0.013173 0.359547
v 0.511907 0.132501 0.233735
v 0.206279 0.321501 0.233790
v -0.382376 0.249664 0.135307
v -0.361699 -0.027297 0.119731
v 0.015512 0.324347 0.307845
vt 0.383683 0.535992
vt 0.200011 0.532411
vt 0.315042 0.496374
vt 0.318402 0.868034
vt 0.304262 0.978370
vt 0.140420 0.945461
vt 0.466698 0.478619
vt 0.429909 0.310715
vt 0.590441 0.438935
vt 0.831632 0.255312
vt 0.653653 0.318658
vt 0.654008 0.018473
vt 0.618904 0.773956
vt 0.450692 0.886563
vt 0.503510 0.791383
vt 0.904317 0.019383
vt 0.572538 0.680932
vt 0.729195 0.660881
vt 0.725576 0.747146
vt 0.565719 0.558319
vt 0.463228 0.555782
vt 0.499245 0.601689
vt 0.358360 0.633154
vt 0.508978 0.621075
vt 0.456173 0.753609
vt 0.239090 0.707407
vt 0.287859 0.807987
vt 0.051320 0.831634
vt 0.991598 0.173954
vt 0.151551 0.333540
vt 0.057870 0.456692
vt 0.181941 0.629837
vt 0.120163 0.525332
vt 0.588150 0.967562
vt 0.257503 0.406950
vt 0.030500 0.577725
vt 0.720056 0.434520
vt 0.672775 0.366211
vt 0.610437 0.328443
vt 0.548509 0.136498
vt 0.364443 0.413212
vt 0.932183 0.306682
vt 0.688008 0.606395
vt 0.741878 0.493414
vt 0.694598 0.820432
vt 0.777972 0.350804
vt 0.586051 0.302479
vn 0.0071 0.3969 0.9179
vn 0.6167 0.3279 0.7157
vn 0.1155 0.7048 0.6999
vn 0.3134 0.7799 -0.5418
vn 0.4121 0.9081 -0.0746
vn 0.9240 0.3105 -0.2230
vn -0.3026 0.6457 0.7011
vn -0.2341 0.9544 0.1854
vn -0.7106 0.3492 0.6109
vn -0.0309 -0.9988 -0.0387
vn -0.0783 -0.8697 0.4872
vn -0.1188 -0.8438 -0.5234
vn -0.7156 0.5414 -0.4413
vn -0.0096 0.9453 -0.3260
vn -0.3645 0.7566 -0.5428
vn 0.2685 -0.7796 -0.5658
vn -0.6157 -0.3631 -0.6993
vn -0.8914 -0.4515 0.0383
vn -0.9695 0.2438 0.0245
vn -0.4961 -0.5450 0.6759
vn -0.2336 0.0330 0.9718
vn 0.1082 -0.7036 0.7023
vn -0.2036 0.2251 -0.9528
vn 0.4690 0.1492 -0.8705
vn 0.6074 -0.7802 -0.1494
vn 0.3857 -0.8076 0.4460
vn 0.9686 0.0820 0.2347
vn 0.2232 0.9238 0.3112
vn -0.6207 0.7712 0.1413
vn -0.3277 -0.9436 -0.0476
vn -0.0219 0.8636 0.5036
g Rock07_low_Rock07_low_Default_OBJ.012
usemtl Default_OBJ.012
s 1
f 1/1/1 2/2/2 3/3/3
f 4/4/4 5/5/5 6/6/6
f 7/7/7 8/8/8 9/9/9
f 10/10/10 11/11/11 12/12/12
f 13/13/13 14/14/14 15/15/15
f 16/16/16 10/10/10 12/12/12
f 17/17/17 13/13/13 15/15/15
f 18/18/18 19/19/19 17/17/17
f 9/9/9 20/20/20 21/21/21
f 11/22/11 22/23/22 21/21/21
f 12/24/12 23/25/23 16/26/16
f 16/26/16 24/27/24 25/28/25
f 23/25/23 14/14/14 24/27/24
f 16/26/16 23/25/23 24/27/24
f 25/29/25 10/10/10 16/16/16
f 22/23/22 2/2/2 1/1/1
f 5/30/5 2/2/2 6/31/6
f 2/2/2 26/32/26 27/33/27
f 13/13/13 8/34/8 14/14/14
f 28/35/28 2/2/2 5/30/5
f 25/36/25 27/33/27 26/32/26
f 24/27/24 6/6/6 25/28/25
f 18/37/18 9/9/9 19/38/19
f 9/9/9 8/8/8 29/39/29
f 20/20/20 9/9/9 18/37/18
f 30/40/30 12/12/12 11/11/11
f 14/14/14 5/5/5 4/4/4
f 5/5/5 14/14/14 8/34/8
f 7/7/7 31/41/31 8/8/8
f 8/8/8 28/35/28 5/30/5
f 26/32/26 2/2/2 22/23/22
f 25/29/25 26/42/26 10/10/10
f 12/24/12 17/17/17 23/25/23
f 17/17/17 12/24/12 30/43/30
f 31/41/31 28/35/28 8/8/8
f 28/35/28 3/3/3 2/2/2
f 30/44/30 20/20/20 18/37/18
f 18/18/18 17/17/17 30/43/30
f 31/41/31 3/3/3 28/35/28
f 31/41/31 1/1/1 3/3/3
f 23/25/23 17/17/17 15/15/15
f 15/15/15 14/14/14 23/25/23
f 7/7/7 1/1/1 31/41/31
f 21/21/21 7/7/7 9/9/9
f 19/19/19 13/13/13 17/17/17
f 29/45/29 8/34/8 13/13/13
f 10/10/10 26/42/26 22/46/22
f 11/11/11 10/10/10 22/46/22
f 19/19/19 29/45/29 13/13/13
f 19/38/19 9/9/9 29/39/29
f 25/36/25 6/31/6 27/33/27
f 6/31/6 2/2/2 27/33/27
f 20/20/20 11/22/11 21/21/21
f 30/40/30 11/11/11 20/47/20
f 24/27/24 14/14/14 4/4/4
f 24/27/24 4/4/4 6/6/6
f 21/21/21 22/23/22 1/1/1
f 21/21/21 1/1/1 7/7/7
