# Blender v2.90.1 OBJ File: 'StylizedRockProject.blend'
# www.blender.org
mtllib Rock10_low.mtl
o Rock10_low
v -0.716994 0.172964 0.101834
v -0.358437 0.471250 -0.249053
v -0.698759 0.071428 -0.255940
v 0.002447 0.489259 0.154686
v -0.539000 0.320455 0.300003
v 0.424617 -0.447824 0.097537
v 0.660282 -0.176661 -0.473825
v 0.574631 -0.222933 0.326670
v -0.031359 -0.389011 0.522683
v 0.234268 -0.204173 -1.200060
v 0.481838 -0.430653 -0.418672
v 0.109429 -0.450559 -0.526629
v -0.141703 -0.373139 0.036809
v 0.406718 0.467772 -0.236773
v 0.174487 0.382969 -1.005398
v -0.008748 0.481607 -0.655602
v 0.081003 0.194247 -1.196344
v -0.176045 0.344893 -0.965217
v -0.685887 -0.184503 0.015568
v -0.057054 0.440764 0.581776
v -0.672407 0.175199 0.439614
v -0.486222 -0.001626 0.833782
v 0.022821 -0.141335 0.894335
v -0.063865 0.232173 0.828926
v 0.592165 0.185312 0.459247
v 0.640684 -0.076962 -0.028174
v 0.525076 0.376342 -0.148734
v -0.033966 -0.307272 -0.990465
v -0.027581 -0.088104 -1.221416
v -0.470086 -0.310066 -0.406320
v -0.122253 -0.452273 -0.302637
v 0.223137 0.389483 0.554730
v 0.410780 0.471139 0.198663
v 0.509435 0.273770 -0.789362
v 0.455608 -0.085573 -0.957606
v 0.340080 0.246238 -1.093544
v -0.609540 -0.190123 0.444970
v -0.330871 -0.327989 0.626078
v -0.434796 -0.190924 -0.800635
v -0.328447 0.108020 -1.021795
v 0.675972 0.067070 -0.461338
v -0.551466 0.034745 -0.757405
vt 0.521661 0.469831
vt 0.386232 0.352675
vt 0.548220 0.337495
vt 0.292638 0.442963
vt 0.431142 0.513791
vt 0.805096 0.804875
vt 0.950255 0.716550
vt 0.829630 0.896159
vt 0.661483 0.853913
vt 0.912643 0.480852
vt 0.869578 0.701174
vt 0.799877 0.639635
vt 0.685974 0.734313
vt 0.208845 0.349837
vt 0.257264 0.186286
vt 0.299246 0.260713
vt 0.270934 0.125695
vt 0.335047 0.182489
vt 0.457679 0.656713
vt 0.532799 0.569360
vt 0.559949 0.670203
vt 0.283838 0.539314
vt 0.472888 0.581372
vt 0.364174 0.707083
vt 0.177707 0.698803
vt 0.255175 0.611406
vt 0.139066 0.498548
vt 0.062014 0.397198
vt 0.173564 0.367331
vt 0.816662 0.514096
vt 0.840977 0.426937
vt 0.657467 0.599914
vt 0.727154 0.661562
vt 0.224711 0.521085
vt 0.205436 0.442014
vt 0.177345 0.222629
vt 0.965727 0.565178
vt 0.217176 0.158443
vt 0.193468 0.029831
vt 0.117850 0.124487
vt 0.533010 0.774710
vt 0.585343 0.843452
vt 0.482658 0.885667
vt 0.434671 0.755507
vt 0.616321 0.966701
vt 0.700663 0.506595
vt 0.391538 0.127845
vt 0.722676 0.406390
vt 0.030093 0.268898
vt 0.099704 0.285644
vt 0.643859 0.469793
vt 0.482274 0.188994
vt 0.024971 0.506092
vt 0.290282 0.044555
vn -0.9329 0.3598 0.0144
vn -0.4302 0.8972 -0.0997
vn -0.9546 0.1506 -0.2568
vn -0.0812 0.9948 0.0623
vn -0.5010 0.8453 0.1857
vn 0.3940 -0.9036 0.1682
vn 0.9203 -0.3412 -0.1912
vn 0.7833 -0.4786 0.3968
vn 0.0622 -0.9491 0.3087
vn 0.3344 -0.5043 -0.7962
vn 0.5120 -0.8463 -0.1472
vn -0.0208 -0.9863 -0.1637
vn -0.2192 -0.9723 0.0810
vn 0.3719 0.9248 -0.0805
vn 0.1469 0.8694 -0.4718
vn -0.0558 0.9833 -0.1730
vn -0.0433 0.4089 -0.9116
vn -0.4327 0.7428 -0.5108
vn -0.8151 -0.5792 0.0089
vn -0.1150 0.9003 0.4198
vn -0.8553 0.3861 0.3454
vn -0.5879 0.0239 0.8086
vn 0.2421 -0.3496 0.9051
vn 0.0427 0.5229 0.8513
vn 0.8321 0.2653 0.4871
vn 0.9963 -0.0085 0.0858
vn 0.8144 0.5803 -0.0055
vn -0.2242 -0.8578 -0.4625
vn -0.3149 -0.2415 -0.9179
vn -0.6134 -0.7717 -0.1681
vn -0.1080 -0.9926 0.0555
vn 0.3613 0.7451 0.5606
vn 0.4459 0.8809 0.1586
vn 0.7730 0.5311 -0.3469
vn 0.8336 -0.2259 -0.5041
vn 0.5725 0.4445 -0.6890
vn -0.7728 -0.5951 0.2205
vn -0.3354 -0.8562 0.3930
vn -0.6716 -0.5826 -0.4577
vn -0.6753 0.1929 -0.7118
vn 0.9738 0.1892 -0.1262
vn -0.8992 0.1230 -0.4199
g Rock10_low_Rock10_low_Default_OBJ.021
usemtl Default_OBJ.021
s 1
f 1/1/1 2/2/2 3/3/3
f 4/4/4 2/2/2 5/5/5
f 6/6/6 7/7/7 8/8/8
f 9/9/9 6/6/6 8/8/8
f 10/10/10 11/11/11 12/12/12
f 6/6/6 9/9/9 13/13/13
f 14/14/14 15/15/15 16/16/16
f 17/17/17 18/18/18 15/15/15
f 1/19/1 3/20/3 19/21/19
f 20/22/20 21/23/21 22/24/22
f 22/24/22 23/25/23 24/26/24
f 25/27/25 26/28/26 27/29/27
f 28/30/28 29/31/29 10/10/10
f 19/21/19 30/32/30 31/33/31
f 14/14/14 2/2/2 4/4/4
f 32/34/32 25/27/25 33/35/33
f 14/14/14 34/36/34 15/15/15
f 11/11/11 35/37/35 7/7/7
f 17/17/17 36/38/36 10/39/10
f 36/38/36 34/36/34 35/40/35
f 37/41/37 13/13/13 38/42/38
f 37/41/37 22/43/22 21/44/21
f 38/42/38 22/43/22 37/41/37
f 38/42/38 23/45/23 22/43/22
f 14/14/14 16/16/16 2/2/2
f 2/2/2 18/18/18 3/3/3
f 6/6/6 12/12/12 11/11/11
f 11/11/11 7/7/7 6/6/6
f 39/46/39 29/31/29 28/30/28
f 40/47/40 18/18/18 17/17/17
f 8/8/8 23/45/23 9/9/9
f 24/26/24 23/25/23 25/27/25
f 19/21/19 3/20/3 30/32/30
f 39/46/39 40/48/40 29/31/29
f 7/49/7 35/40/35 41/50/41
f 27/29/27 26/28/26 41/50/41
f 1/19/1 19/21/19 37/41/37
f 13/13/13 37/41/37 19/21/19
f 34/36/34 27/29/27 41/50/41
f 35/40/35 34/36/34 41/50/41
f 3/20/3 42/51/42 39/46/39
f 18/18/18 42/52/42 3/3/3
f 25/27/25 8/53/8 26/28/26
f 8/53/8 25/27/25 23/25/23
f 29/54/29 17/17/17 10/39/10
f 29/54/29 40/47/40 17/17/17
f 20/22/20 22/24/22 24/26/24
f 24/26/24 25/27/25 32/34/32
f 28/30/28 10/10/10 12/12/12
f 28/30/28 31/33/31 30/32/30
f 16/16/16 18/18/18 2/2/2
f 15/15/15 18/18/18 16/16/16
f 6/6/6 13/13/13 12/12/12
f 31/33/31 13/13/13 19/21/19
f 33/35/33 4/4/4 20/22/20
f 5/5/5 20/22/20 4/4/4
f 3/20/3 39/46/39 30/32/30
f 30/32/30 39/46/39 28/30/28
f 26/28/26 8/53/8 7/49/7
f 7/49/7 41/50/41 26/28/26
f 1/1/1 5/5/5 2/2/2
f 20/22/20 5/5/5 21/23/21
f 15/15/15 36/38/36 17/17/17
f 36/38/36 15/15/15 34/36/34
f 21/44/21 1/19/1 37/41/37
f 5/5/5 1/1/1 21/23/21
f 11/11/11 10/10/10 35/37/35
f 10/39/10 36/38/36 35/40/35
f 33/35/33 20/22/20 32/34/32
f 24/26/24 32/34/32 20/22/20
f 12/12/12 31/33/31 28/30/28
f 12/12/12 13/13/13 31/33/31
f 27/29/27 33/35/33 25/27/25
f 33/35/33 14/14/14 4/4/4
f 40/48/40 39/46/39 42/51/42
f 40/47/40 42/52/42 18/18/18
f 9/9/9 23/45/23 38/42/38
f 9/9/9 38/42/38 13/13/13
f 27/29/27 14/14/14 33/35/33
f 27/29/27 34/36/34 14/14/14
